<?xml version="1.0"?>
<svg xmlns="http://www.w3.org/2000/svg" id="Layer_1" data-name="Layer 1" viewBox="0 0 512 512" width="512" height="512" fill="#8731b8"><path d="M495.685,263.856,461.05,240.8V214.13a6,6,0,0,0-6-6H434.18V142.77h9.84a20.253,20.253,0,0,0,20.23-20.23V89.86a20.132,20.132,0,0,0-19.521-20.225c-.239-.012-.467-.015-.709-.015H173.51a6,6,0,0,0-6,6v2.74H83.53a6,6,0,0,0-6,6v3.12H56.5V84.36a6,6,0,0,0-6-6H19.89a6,6,0,0,0-6,6v43.47a6,6,0,0,0,6,6h9.72v25.534a21.968,21.968,0,0,0,5.142,43.082c.288.011.574.016.86.016a21.829,21.829,0,0,0,19.3-11.494,6,6,0,1,0-10.551-5.716,9.892,9.892,0,0,1-9.156,5.2A9.966,9.966,0,0,1,33.765,170.7a9.69,9.69,0,0,0,7.845-9.524V133.83H50.5a6,6,0,0,0,6-6v-3.12H77.53v3.12a6,6,0,0,0,6,6h83.98v2.94a6,6,0,0,0,6,6h79.71v17.34a14.727,14.727,0,0,0,14.71,14.71h2.33v28.84a6,6,0,0,0,2.871,5.12l62.812,38.448-3.163,4.422H192.12V220.56a18.021,18.021,0,0,0-18-18H82.8a17.959,17.959,0,0,0-15.913,9.574L38.252,266.247l-.019.035-.016.032c-.017.032-.029.065-.046.1-.071.141-.14.284-.2.431-.025.063-.045.127-.069.19-.045.119-.089.239-.126.362-.028.092-.048.185-.072.278s-.05.19-.069.288c-.024.123-.04.247-.056.37-.009.07-.022.139-.029.209-.015.155-.02.309-.023.463,0,.04-.006.078-.006.118v75.2h-2a6,6,0,0,0-6,6v34a6,6,0,0,0,6,6l44.049.01h0a6,6,0,0,0,6-6,68.5,68.5,0,0,1,68.54-68.54,68.679,68.679,0,0,1,66.147,50.481c.551,2.045.992,4.047,1.353,6.138a69.027,69.027,0,0,1,1.04,11.921,6,6,0,0,0,12,0c0-2.319-.1-4.645-.3-6.96h4.872v3.96a10.011,10.011,0,0,0,10,10h46.43a10.011,10.011,0,0,0,10-10v-3.96h5.108c-.2,2.307-.3,4.632-.3,6.96a6,6,0,0,0,12,0A68.545,68.545,0,0,1,457.133,366.3c.554,2.02,1.013,4.077,1.37,6.149a67.769,67.769,0,0,1,1.037,11.885,6,6,0,0,0,12,0c0-2.335-.1-4.661-.3-6.96h21.12a6,6,0,0,0,6-6V268.85A6,6,0,0,0,495.685,263.856ZM44.5,121.83H25.89V90.36H44.5Zm33.03-9.12H56.5V99.48H77.53Zm89.98,9.12H89.53V90.36h77.98ZM49.52,275.12H68.57v24.2H49.52ZM73.786,378.329l-32.266-.008v-22h1.911c.029,0,.059,0,.089,0s.059,0,.088,0l34.958.008A79.314,79.314,0,0,0,73.786,378.329ZM180.12,308.12a80.5,80.5,0,0,0-95.929,36.209l-34.671-.007v-33H74.57a6,6,0,0,0,6-6v-30.2H87a6,6,0,0,0,0-12H53.483l24.01-45.373A5.986,5.986,0,0,1,82.8,214.56h32.02v48.56h-7.487a6,6,0,1,0,0,12H180.12Zm0-45h-53.3V214.56h47.3a6.007,6.007,0,0,1,6,6ZM448.058,82.7a8.3,8.3,0,0,1,4.192,7.162v32.68a8.239,8.239,0,0,1-8.23,8.23h-9.84v-6.59a27.085,27.085,0,0,0-.643-5.848ZM415.233,81.62H435.54l-9.483,23.272a26.811,26.811,0,0,0-17.2-7.636Zm2.554,31.963a14.875,14.875,0,0,1,4.393,10.6V240.42a14.985,14.985,0,1,1-29.97,0V124.18a14.986,14.986,0,0,1,25.577-10.6ZM402.273,81.62l-7.622,18.686A26.817,26.817,0,0,0,380.21,124.18v6.59H361.926l20.038-49.15ZM369,81.62l-20.038,49.15h-20.31l20.038-49.15Zm-33.27,0L315.7,130.77h-20.31l20.038-49.15ZM179.51,130.77V81.62h23.146l-20.029,49.15Zm16.074,0,20.03-49.15h20.31l-20.037,49.15Zm53.572,0h-20.31l20.038-49.15h20.31Zm33-49.15h20.31l-20.037,49.15H262.116Zm-14.224,81.2a2.713,2.713,0,0,1-2.71-2.71V142.77H287.3v17.34a2.713,2.713,0,0,1-2.71,2.71ZM282.26,200.3V174.82h2.33a14.727,14.727,0,0,0,14.71-14.71V142.77h80.91v65.36H366.99a6,6,0,0,0-4.88,2.509l-19.368,27.082ZM192.12,263.65H324.2l-10.062,14.07H192.12ZM293.65,379.33H251.22V350.06h42.43Zm19.071-13.96H305.65V348.06a10.011,10.011,0,0,0-10-10H249.22a10.011,10.011,0,0,0-10,10v17.31h-6.833c-.178-.747-.348-1.5-.548-2.237A80.5,80.5,0,0,0,195.523,315.3l62.659.109h.01a6,6,0,0,0,.011-12l-66.083-.115V289.72H305.553l-9.843,13.764-17.578-.032h-.012a6,6,0,0,0-.011,12l70.871.127A80.226,80.226,0,0,0,312.721,365.37Zm-2.283-61.86,59.638-83.38H380.21v20.29a26.985,26.985,0,1,0,53.97,0V220.13h14.87v83.632Zm148.1,36.963a80.848,80.848,0,0,0-25.418-24.742l25.418.046Zm27.82,24.9H470.54V338.28h15.82Zm0-39.09H470.54V309.79a6,6,0,0,0-5.987-6l-3.5-.006V255.212l25.31,16.852Z"/><path d="M173.322,360.516a30.629,30.629,0,0,0-49.468,19.156c-.047.3-.08.609-.117.914-.025.2-.057.408-.078.614a30.606,30.606,0,0,0,56.624,18.99,30.562,30.562,0,0,0-6.961-39.674Zm-3.783,34.21a18.612,18.612,0,0,1-33.942-12.3c.046-.447.125-.884.2-1.322.03-.173.045-.351.08-.522a18.444,18.444,0,0,1,.984-3.215c.037-.092.064-.188.1-.278.066-.155.149-.3.219-.453a18.6,18.6,0,1,1,32.355,18.09Z"/><path d="M391,353.71a30.653,30.653,0,1,0,22.648,10.043A30.531,30.531,0,0,0,391,353.71Zm17.773,36.146a18.61,18.61,0,1,1,.837-5.526A18.645,18.645,0,0,1,408.773,389.856Z"/><path d="M154.112,326.275a58.05,58.05,0,1,0,58.05,58.05A58.116,58.116,0,0,0,154.112,326.275Zm45.653,52.1a5.995,5.995,0,0,0,0,11.9A45.714,45.714,0,0,1,196.629,402a5.995,5.995,0,0,0-5.968,10.292,46.475,46.475,0,0,1-8.581,8.58,5.995,5.995,0,0,0-10.292,5.968,45.692,45.692,0,0,1-11.727,3.136,5.994,5.994,0,0,0-11.9,0,45.692,45.692,0,0,1-11.727-3.136,5.995,5.995,0,0,0-10.292-5.968,46.408,46.408,0,0,1-8.58-8.58A5.995,5.995,0,0,0,111.6,402a45.714,45.714,0,0,1-3.136-11.727,5.995,5.995,0,0,0,0-11.9A45.7,45.7,0,0,1,111.6,366.65a6,6,0,0,0,5.969-10.293,46.392,46.392,0,0,1,8.578-8.579,6,6,0,0,0,10.294-5.969,45.612,45.612,0,0,1,11.727-3.136,5.994,5.994,0,0,0,11.9,0,45.612,45.612,0,0,1,11.727,3.136,6,6,0,0,0,10.294,5.969,46.4,46.4,0,0,1,8.579,8.579,5.994,5.994,0,0,0,5.968,10.293A45.685,45.685,0,0,1,199.765,378.376Z"/><path d="M391,326.275a58.05,58.05,0,1,0,58.05,58.05A58.116,58.116,0,0,0,391,326.275Zm45.652,52.1a6,6,0,0,0,0,11.9A45.654,45.654,0,0,1,433.517,402a5.995,5.995,0,0,0-5.969,10.292,46.414,46.414,0,0,1-8.58,8.581,5.995,5.995,0,0,0-10.292,5.968,45.692,45.692,0,0,1-11.727,3.136,5.994,5.994,0,0,0-11.9,0,45.692,45.692,0,0,1-11.727-3.136,5.995,5.995,0,0,0-10.292-5.968,46.419,46.419,0,0,1-8.581-8.581A5.994,5.994,0,0,0,348.482,402a45.672,45.672,0,0,1-3.135-11.727,5.995,5.995,0,0,0,0-11.9,45.643,45.643,0,0,1,3.135-11.726,6,6,0,0,0,5.969-10.293,46.434,46.434,0,0,1,8.579-8.58,6,6,0,0,0,10.294-5.969,45.65,45.65,0,0,1,11.727-3.135,5.994,5.994,0,0,0,11.9,0,45.612,45.612,0,0,1,11.727,3.136,6,6,0,0,0,10.294,5.969,46.423,46.423,0,0,1,8.578,8.579,5.995,5.995,0,0,0,5.969,10.293A45.643,45.643,0,0,1,436.652,378.376Z"/></svg>
