<svg id="Capa_1" enable-background="new 0 0 512 512" height="512" viewBox="0 0 512 512" width="512" xmlns="http://www.w3.org/2000/svg"><g><path style="fill:#8731b8;"  d="m180.667 28.805h150.667v66.878h-150.667z"/><path style="fill:#8731b8;" d="m271 125.683h150.667v66.878h-150.667z"/><path style="fill:#8731b8;" d="m180.667 222.561h150.667v66.878h-150.667z"/><path style="fill:#8731b8;" d="m271 319.439h150.667v66.878h-150.667z"/><path style="fill:#8731b8;" d="m180.667 416.317h150.667v66.878h-150.667z"/><path style="fill:#8731b8;" d="m90.333 319.439h150.667v66.878h-150.667z"/><path style="fill:#8731b8;" d="m361.333 222.561h150.667v66.878h-150.667z"/><path style="fill:#8731b8;" d="m361.333 416.317h150.667v66.878h-150.667z"/><path style="fill:#8731b8;" d="m0 416.317h150.667v66.878h-150.667z"/><path style="fill:#8731b8;" d="m361.333 28.805h150.667v66.878h-150.667z"/><path style="fill:#8731b8;" d="m0 222.561h150.667v66.878h-150.667z"/><path style="fill:#8731b8;" d="m0 28.805h150.667v66.878h-150.667z"/><path style="fill:#8731b8;" d="m0 125.683h60.333v66.878h-60.333z"/><path style="fill:#8731b8;" d="m0 319.439h60.333v66.878h-60.333z"/><path style="fill:#8731b8;" d="m451.667 125.683h60.333v66.878h-60.333z"/><path style="fill:#8731b8;" d="m451.667 319.439h60.333v66.878h-60.333z"/><path style="fill:#8731b8;" d="m90.333 125.683h150.667v66.878h-150.667z"/></g></svg>