<svg xmlns="http://www.w3.org/2000/svg" xmlns:xlink="http://www.w3.org/1999/xlink" viewBox="0 0 56 56" width="56" height="56">
  <defs>
    <path id="a" d="M43.6 22h-9v-2.1h9V22zm-11 0H20.7v-2.1h11.9V22zm-14-3.1v5.2h-1c-.3 0-.5.1-.7.3-.2.2-.3.5-.3.7v4.1c0 .3.1.5.3.7.2.2.5.3.7.3h1v2.1h-6.2v-2.1h1c.3 0 .5-.1.7-.3.2-.2.3-.5.3-.7v-4.1c0-.3-.1-.5-.3-.7-.2-.2-.5-.3-.7-.3h-1v-3.8c0-2.8 1.3-5.4 3.5-7v.9c0 1.7 1.1 3.2 2.8 3.6v1.1zm26-1h-24v-1c0-.3-.1-.5-.3-.7-.2-.2-.5-.3-.7-.3-.5 0-.9-.2-1.2-.5-.3-.3-.5-.8-.5-1.2v-2.7c0-.4-.2-.7-.5-.9-.3-.2-.7-.2-1 0-3.7 1.9-6.1 5.7-6.1 9.8v4.8c0 .3.1.5.3.7.2.2.5.3.7.3h1v2.1h-1c-.3 0-.5.1-.7.3-.2.2-.3.5-.3.7v4.1c0 .3.1.5.3.7.2.2.5.3.7.3h8.3c.3 0 .5-.1.7-.3.2-.2.3-.5.3-.7v-4.1c0-.3-.1-.5-.3-.7-.2-.2-.5-.3-.7-.3h-1v-2.1h1c.3 0 .5-.1.7-.3.2-.2.3-.5.3-.7v-1h24c.3 0 .5-.1.7-.3.2-.2.3-.5.3-.7v-4.1c0-.3-.1-.5-.3-.7-.1-.4-.4-.5-.7-.5z"/>
  </defs>
  <clipPath id="b">
    <use overflow="visible" xlink:href="#a"/>
  </clipPath>
  <g clip-path="url(#b)">
    <defs>
      <path id="c" d="M-476.7-439.9H529.8V646.9H-476.7z"/>
    </defs>
    <clipPath id="d">
      <use overflow="visible" xlink:href="#c"/>
    </clipPath>
    <path fill="#8731b8" d="M6.6 6.6h42.7V38H6.6z" clip-path="url(#d)"/>
  </g>
  <defs>
    <path id="e" d="M44.6 43.6H16.5V40h2.1c.6 0 1-.5 1-1 0-.6-.5-1-1-1h-6.2c-.6 0-1 .5-1 1 0 .6.5 1 1 1h2.1v3.6h-3.1c-.6 0-1 .5-1 1 0 .6.5 1 1 1h33.3c.6 0 1-.5 1-1s-.5-1-1.1-1z"/>
  </defs>
  <clipPath id="f">
    <use overflow="visible" xlink:href="#e"/>
  </clipPath>
  <g clip-path="url(#f)">
    <defs>
      <path id="g" d="M-476.7-439.9H529.8V646.9H-476.7z"/>
    </defs>
    <clipPath id="h">
      <use overflow="visible" xlink:href="#g"/>
    </clipPath>
    <path fill="#8731b8" d="M6.6 34.3h42.8v15.1H6.6z" clip-path="url(#h)"/>
  </g>
  <g>
    <defs>
      <path id="i" d="M19.9 19.2H45v3.7H19.9z"/>
    </defs>
    <clipPath id="j">
      <use overflow="visible" xlink:href="#i"/>
    </clipPath>
    <g clip-path="url(#j)">
      <defs>
        <path id="k" d="M-476.7-439.9H529.8V646.9H-476.7z"/>
      </defs>
      <clipPath id="l">
        <use overflow="visible" xlink:href="#k"/>
      </clipPath>
      <path fill="#8731b8" d="M16.2 15.5h32.4v11.1H16.2z" clip-path="url(#l)" opacity=".4"/>
    </g>
  </g>
  <g>
    <defs>
      <path id="m" d="M43.6 22h-9v-2.1h9V22zm-11 0H20.7v-2.1h11.9V22zm-14-3.1v5.2h-1c-.3 0-.5.1-.7.3-.2.2-.3.5-.3.7v4.1c0 .3.1.5.3.7.2.2.5.3.7.3h1v2.1h-6.2v-2.1h1c.3 0 .5-.1.7-.3.2-.2.3-.5.3-.7v-4.1c0-.3-.1-.5-.3-.7-.2-.2-.5-.3-.7-.3h-1v-3.8c0-2.8 1.3-5.4 3.5-7v.9c0 1.7 1.1 3.2 2.8 3.6v1.1zm26-1h-24v-1c0-.3-.1-.5-.3-.7-.2-.2-.5-.3-.7-.3-.5 0-.9-.2-1.2-.5-.3-.3-.5-.8-.5-1.2v-2.7c0-.4-.2-.7-.5-.9-.3-.2-.7-.2-1 0-3.7 1.9-6.1 5.7-6.1 9.8v4.8c0 .3.1.5.3.7.2.2.5.3.7.3h1v2.1h-1c-.3 0-.5.1-.7.3-.2.2-.3.5-.3.7v4.1c0 .3.1.5.3.7.2.2.5.3.7.3h8.3c.3 0 .5-.1.7-.3.2-.2.3-.5.3-.7v-4.1c0-.3-.1-.5-.3-.7-.2-.2-.5-.3-.7-.3h-1v-2.1h1c.3 0 .5-.1.7-.3.2-.2.3-.5.3-.7v-1h24c.3 0 .5-.1.7-.3.2-.2.3-.5.3-.7v-4.1c0-.3-.1-.5-.3-.7-.1-.4-.4-.5-.7-.5z"/>
    </defs>
    <clipPath id="n">
      <use overflow="visible" xlink:href="#m"/>
    </clipPath>
    <g clip-path="url(#n)">
      <defs>
        <path id="o" d="M-476.7-439.9H529.8V646.9H-476.7z"/>
      </defs>
      <clipPath id="p">
        <use overflow="visible" xlink:href="#o"/>
      </clipPath>
      <path fill="#8731b8" d="M6.6 6.6h42.7V38H6.6z" clip-path="url(#p)"/>
    </g>
  </g>
  <g>
    <defs>
      <path id="q" d="M44.6 43.6H16.5V40h2.1c.6 0 1-.5 1-1 0-.6-.5-1-1-1h-6.2c-.6 0-1 .5-1 1 0 .6.5 1 1 1h2.1v3.6h-3.1c-.6 0-1 .5-1 1 0 .6.5 1 1 1h33.3c.6 0 1-.5 1-1s-.5-1-1.1-1z"/>
    </defs>
    <clipPath id="r">
      <use overflow="visible" xlink:href="#q"/>
    </clipPath>
    <g clip-path="url(#r)">
      <defs>
        <path id="s" d="M-476.7-439.9H529.8V646.9H-476.7z"/>
      </defs>
      <clipPath id="t">
        <use overflow="visible" xlink:href="#s"/>
      </clipPath>
      <path fill="#8731b8" d="M6.6 34.3h42.8v15.1H6.6z" clip-path="url(#t)"/>
    </g>
  </g>
  <g>
    <defs>
      <path id="u" d="M19.9 19.2H45v3.7H19.9z"/>
    </defs>
    <clipPath id="v">
      <use overflow="visible" xlink:href="#u"/>
    </clipPath>
    <g clip-path="url(#v)">
      <defs>
        <path id="w" d="M-476.7-439.9H529.8V646.9H-476.7z"/>
      </defs>
      <clipPath id="x">
        <use overflow="visible" xlink:href="#w"/>
      </clipPath>
      <path fill="#8731b8" d="M16.2 15.5h32.4v11.1H16.2z" clip-path="url(#x)" opacity=".4"/>
    </g>
  </g>
</svg>
