<svg xmlns="http://www.w3.org/2000/svg" xmlns:xlink="http://www.w3.org/1999/xlink" viewBox="0 0 56 56" width="56" height="56">
  <defs>
    <path id="a" d="M42.2 43h-3.7V24.9c0-.6-.5-1-1-1H18.6c-.6 0-1 .5-1 1V43h-3.7V24.9L28 13.3l14.1 11.6.1 18.1zm-5.8-13.4v1.6H19.6v-1.6h16.8zm0-2.1H19.6v-1.6h16.8v1.6zm-16.8 5.8h16.8V43H19.6v-9.7zm24.2-9.7L28.7 11.2c-.4-.3-.9-.3-1.3 0L12.2 23.6c-.2.2-.4.5-.4.8V44c0 .6.5 1 1 1h30.4c.6 0 1-.5 1-1V24.4c0-.3-.1-.6-.4-.8z"/>
  </defs>
  <clipPath id="b">
    <use overflow="visible" xlink:href="#a"/>
  </clipPath>
  <g clip-path="url(#b)">
    <defs>
      <path id="c" d="M-476.9-600.6H529.6V486.2H-476.9z"/>
    </defs>
    <clipPath id="d">
      <use overflow="visible" xlink:href="#c"/>
    </clipPath>
    <path fill="#8731b8" d="M8.1 7.3h39.8v41.5H8.1z" clip-path="url(#d)"/>
  </g>
  <g>
    <defs>
      <path id="e" d="M19.2 24.9h18.4V33H19.2z"/>
    </defs>
    <clipPath id="f">
      <use overflow="visible" xlink:href="#e"/>
    </clipPath>
    <g clip-path="url(#f)">
      <defs>
        <path id="g" d="M-476.9-600.6H529.6V486.2H-476.9z"/>
      </defs>
      <clipPath id="h">
        <use overflow="visible" xlink:href="#g"/>
      </clipPath>
      <path fill="#8731b8" d="M15.5 21.3h25.8v15.5H15.5z" clip-path="url(#h)" opacity=".4"/>
    </g>
  </g>
</svg>
