<svg xmlns="http://www.w3.org/2000/svg" xmlns:xlink="http://www.w3.org/1999/xlink" viewBox="0 0 56 56" width="56" height="56">
  <defs>
    <path id="a" d="M47.8 44.1c-1 2.4-3.3 4-5.8 4.1-2.6.1-5-1.4-6.1-3.7H20.5c-.5 1-1.2 1.9-2.2 2.6-2 1.4-4.6 1.5-6.7.4s-3.5-3.4-3.5-5.8v-.1c.1-3.6 3-6.5 6.6-6.5 2.5 0 4.8 1.5 5.8 3.7h1.1c.4 0 .6.3.6.6 0 .4-.3.6-.6.6h-1.5c-.3 0-.5-.2-.6-.4-.9-2.3-3.4-3.7-5.8-3.2-2.5.5-4.3 2.6-4.3 5.1 0 1.4.5 2.8 1.5 3.8s2.3 1.6 3.7 1.6c2.1 0 4.1-1.3 4.9-3.3.1-.2.3-.4.6-.4h16.2c.3 0 .5.2.6.4.7 1.8 2.4 3.1 4.4 3.3 2 .2 3.9-.8 4.9-2.4h-3.4c-1.1 0-2.1-.9-2.1-2.1V41c0-1.1.9-2.1 2.1-2.1h3.4c-1.1-1.7-3-2.6-4.9-2.4-2 .2-3.7 1.5-4.4 3.3-.1.2-.3.4-.6.4h-9.4c-.4 0-.6-.3-.6-.6 0-.4.3-.6.6-.6h9c.5-1 1.2-1.9 2.2-2.6 2.2-1.5 5.2-1.5 7.4 0 1.1.7 1.9 1.8 2.4 3 .1.2.1.4-.1.6-.1.2-.3.3-.5.3h-4.5c-.4 0-.8.4-.8.8v1.5c0 .4.4.8.8.8h4.5c.2 0 .4.1.5.3.1 0 .1.2 0 .4zm-24-4.1c-.2-.2-.3-.6-.1-.8.2-.3.5-.4.8-.2.3.1.4.4.4.7-.1.3-.3.5-.6.5-.2 0-.4-.1-.5-.2zm-7.5 1.7c0 .9-.7 1.7-1.7 1.7s-1.6-.8-1.6-1.7c0-.9.7-1.7 1.7-1.7.4 0 .9.2 1.2.5.2.4.4.8.4 1.2zm-4.6 0c0 1.6 1.3 2.9 2.9 2.9 1.6 0 2.9-1.3 2.9-2.9 0-1.6-1.3-2.9-2.9-2.9-1.6 0-2.9 1.3-2.9 2.9zm7.4-21c.1.1.3.2.4.3v3.2c-.7-.2-1.2-.9-1.3-1.6-.1-.8.3-1.5.9-1.9zm.4-6.8c0-2.7 2.2-4.9 4.8-4.9h7.5c2.7 0 4.8 2.2 4.8 4.9v3.9c-1.4-1.2-4-2.8-8.6-2.8s-7.2 1.6-8.6 2.8v-3.9zm18.6 8.4c0 .9-.5 1.6-1.4 1.9V21c.2-.1.3-.2.4-.3.6.4 1 1 1 1.6zm-4-2c-.7 0-1.3-.2-1.9-.5-1.3-.6-2.6-.9-4-.8-1.4 0-2.8.3-4 .8-.6.3-1.3.5-1.9.5-.9 0-1.7-.3-2.4-.8.7-1 3-3.2 8.4-3.2s7.7 2.2 8.4 3.2c-.9.6-1.7.8-2.6.8zm1.3 3.3c0 1.6-.6 3.1-1.7 4.2l-2.6 2.6c-.4.4-.9.6-1.4.6h-3.1c-.5 0-1-.2-1.4-.6l-2.6-2.6c-1.1-1.1-1.7-2.6-1.7-4.2v-2.1c.4.1.9.2 1.3.2.8 0 1.7-.2 2.4-.6 1.1-.5 2.3-.8 3.5-.7 1.2 0 2.4.2 3.5.7.8.4 1.6.6 2.4.6.4 0 .9-.1 1.3-.2l.1 2.1zm-15.6 2c.3 1.2 1 2.2 1.8 3.1l2.6 2.6c.6.6 1.5 1 2.3 1h3.1c.9 0 1.7-.3 2.3-1l2.6-2.6c.9-.9 1.5-1.9 1.8-3.1 1.3-.1 2.5-1.1 2.8-2.4.4-1.3-.1-2.7-1.2-3.5v-5.8c0-3.4-2.8-6.2-6.2-6.2h-7.5c-3.4 0-6.1 2.8-6.2 6.2v5.8c-1.1.8-1.6 2.2-1.2 3.5.6 1.3 1.7 2.3 3 2.4zM38.6 34l-.7-.2-3.7-1.2v-.9h-1.3v1.1c-.4.4-1.7 1.6-4.6 1.6s-4.3-1.2-4.6-1.6v-1.1h-1.3v.8l-4.3 1.4.4 1.3 4.4-1.5c.7.7 2.3 1.9 5.5 1.9s4.8-1.2 5.5-1.9l4.4 1.5.3-1.2z"/>
  </defs>
  <clipPath id="b">
    <use overflow="visible" xlink:href="#a"/>
  </clipPath>
  <g clip-path="url(#b)">
    <defs>
      <path id="c" d="M-640.3-600.2H366.2V486.6H-640.3z"/>
    </defs>
    <clipPath id="d">
      <use overflow="visible" xlink:href="#c"/>
    </clipPath>
    <path fill="#8731b8" d="M4.4 4.1h47.2V52H4.4z" clip-path="url(#d)"/>
  </g>
  <g>
    <defs>
      <path id="e" d="M19.1 19.5l3.9-3 3.1-.4h4.2l3.4 1 3.1 2v-6.4l-1.5-2.6-1.6-.9-2.3-.7h-9.2l-1.8 1.1-1.3 1.7-.7 3.7v3.6z"/>
    </defs>
    <clipPath id="f">
      <use overflow="visible" xlink:href="#e"/>
    </clipPath>
    <g clip-path="url(#f)">
      <defs>
        <path id="g" d="M-640.3-600.2H366.2V486.6H-640.3z"/>
      </defs>
      <clipPath id="h">
        <use overflow="visible" xlink:href="#g"/>
      </clipPath>
      <path fill="#8731b8" d="M14.7 4.8h25.8v18.4H14.7z" clip-path="url(#h)" opacity=".4"/>
    </g>
  </g>
</svg>
