<?xml version="1.0"?>
<svg style="fill:#8731b8;" xmlns="http://www.w3.org/2000/svg" width="512" height="512" viewBox="0 0 512 512"><g><path d="M464,56H448V40a8,8,0,0,0-8-8H424V16a8,8,0,0,0-8-8H112a8,8,0,0,0-8,8V32H88a8,8,0,0,0-8,8V88a8,8,0,0,0,8,8h16v16a8,8,0,0,0,8,8H416a8,8,0,0,0,8-8V96h16a8,8,0,0,0,8-8V72h8v72H264a8,8,0,0,0-8,8V280h-8a8,8,0,0,0-8,8v24h-8a8,8,0,0,0-8,8V464a40,40,0,0,0,80,0V320a8,8,0,0,0-8-8h-8V288a8,8,0,0,0-8-8h-8V160H464a8,8,0,0,0,8-8V64A8,8,0,0,0,464,56ZM104,80H96V48h8Zm304,24H120V24H408Zm24-24h-8V48h8ZM256,296h16v16H256Zm32,32V464a24,24,0,0,1-48,0V328Z"/><path d="M272,40H144a8,8,0,0,0,0,16H272a8,8,0,0,0,0-16Z"/><path d="M312,40H296a8,8,0,0,0,0,16h16a8,8,0,0,0,0-16Z"/><path d="M160,144H48a8,8,0,0,0-8,8V272a48.069,48.069,0,0,0,40,47.32V336H72a8,8,0,0,0-8,8V464a40,40,0,0,0,80,0V344a8,8,0,0,0-8-8h-8V319.32A48.069,48.069,0,0,0,168,272V152A8,8,0,0,0,160,144ZM128,464a24,24,0,0,1-48,0V352h48ZM96,336V288h16v48Zm56-64a32.058,32.058,0,0,1-24,30.99V280a8,8,0,0,0-8-8H88a8,8,0,0,0-8,8v22.99A32.058,32.058,0,0,1,56,272V256h96Zm0-32H56V160h96Z"/></g></svg>
