<svg xmlns="http://www.w3.org/2000/svg" xmlns:xlink="http://www.w3.org/1999/xlink" viewBox="0 0 56 56" width="56" height="56">
  <defs>
    <path id="a" d="M46.2 39.7l-3.7-1.3c-.2-.1-.4-.1-.5 0L37.5 40 33 38.4c-.2-.1-.4-.1-.5 0L28 40l-4.5-1.6c-.2-.1-.4-.1-.5 0L18.5 40 14 38.4h-.6l-3.6 1.3V39l3.9-1.4 4.5 1.6h.2l4.5-1.6 4.5 1.6h.2l4.5-1.6 4.5 1.6h.2l4.5-1.6 3.9 1.4 1 .7zm-34.5-9l3.5-1.2 3.4 1.2-.8 6.6L14 36h-.6l-3.3 1.2 1.6-6.5zm1.9-7.5l3.1-1.1 2.8 1-.7 5.9-3.3-1.1c-.2-.1-.4-.1-.5 0l-2.7 1 1.3-5.7zm1.8-7.2h5l-.7 5.5-2.8-1c-.2-.1-.4-.1-.5 0l-2.4.8 1.4-5.3zm5.8 7.2l3-1 2.9 1v5.7L24 27.8c-.2-.1-.4-.1-.5 0l-3 1 .7-5.6zm6 7.5v6.5l-3.7-1.3c-.2-.1-.4-.1-.5 0l-3.5 1.2.8-6.5 3.5-1.2 3.4 1.3zM22.1 16h5.1v5.5l-2.7-.9c-.2-.1-.4-.1-.5 0l-2.5.9.6-5.5zm6.7 14.7l3.4-1.2 3.5 1.2.8 6.5-3.5-1.3c-.2-.1-.4-.1-.5 0l-3.7 1.3v-6.5zm0-7.5l2.9-1 3 1 .7 5.6-3-1c-.2-.1-.4-.1-.5 0l-3.2 1.1.1-5.7zm0-7.2h5.1l.7 5.4-2.6-.9c-.2-.1-.4-.1-.5 0l-2.7.9V16zm11.8 0l1.3 5.4-2.4-.8c-.2-.1-.4-.1-.5 0l-2.8 1-.6-5.6h5zm1.8 7.2l1.4 5.5-2.7-1c-.2-.1-.4-.1-.5 0L37.2 29l-.7-5.8 2.8-1 3.1 1zm3.5 13.9l-3.3-1.2c-.2-.1-.4-.1-.5 0l-3.8 1.3-.8-6.6 3.4-1.2 3.5 1.2 1.5 6.5zm2 1.2s0-.1 0 0v-.1-.1l-5.8-23.2c-.1-.4-.4-.6-.8-.6H14.7c-.4 0-.7.3-.8.6L8.1 38.2v2.6c0 .3.1.5.3.7s.5.2.8.1l4.5-1.6 4.5 1.6c.2.1.4.1.5 0l4.5-1.6 4.5 1.6c.2.1.4.1.5 0l4.5-1.6 4.5 1.6c.2.1.4.1.5 0l4.5-1.6 4.5 1.6h.3c.5 0 .8-.4.8-.8v-2.5c.1.1.1 0 .1 0z"/>
  </defs>
  <clipPath id="b">
    <use overflow="visible" xlink:href="#a"/>
  </clipPath>
  <g clip-path="url(#b)">
    <defs>
      <path id="c" d="M-801-439.6H205.5V647.2H-801z"/>
    </defs>
    <clipPath id="d">
      <use overflow="visible" xlink:href="#c"/>
    </clipPath>
    <path fill="#8731b8" d="M4.4 10.6h47.2v34.7H4.4z" clip-path="url(#d)"/>
  </g>
  <defs>
    <path id="e" d="M28 15.9c1.3-.1 13.4 0 13.4 0L45 30.6l-3.6-1.4-4.9 1.4-4.7-1.4-3.8 1.3V15.9z"/>
  </defs>
  <clipPath id="f">
    <use overflow="visible" xlink:href="#e"/>
  </clipPath>
  <g clip-path="url(#f)">
    <defs>
      <path id="g" d="M-801-439.6H205.5V647.2H-801z"/>
    </defs>
    <clipPath id="h">
      <use overflow="visible" xlink:href="#g"/>
    </clipPath>
    <path fill="#8731b8" d="M24.3 12.1h24.3v22.1H24.3z" clip-path="url(#h)" opacity=".4"/>
  </g>
  <g>
    <defs>
      <path id="i" d="M46.2 39.7l-3.7-1.3c-.2-.1-.4-.1-.5 0L37.5 40 33 38.4c-.2-.1-.4-.1-.5 0L28 40l-4.5-1.6c-.2-.1-.4-.1-.5 0L18.5 40 14 38.4h-.6l-3.6 1.3V39l3.9-1.4 4.5 1.6h.2l4.5-1.6 4.5 1.6h.2l4.5-1.6 4.5 1.6h.2l4.5-1.6 3.9 1.4 1 .7zm-34.5-9l3.5-1.2 3.4 1.2-.8 6.6L14 36h-.6l-3.3 1.2 1.6-6.5zm1.9-7.5l3.1-1.1 2.8 1-.7 5.9-3.3-1.1c-.2-.1-.4-.1-.5 0l-2.7 1 1.3-5.7zm1.8-7.2h5l-.7 5.5-2.8-1c-.2-.1-.4-.1-.5 0l-2.4.8 1.4-5.3zm5.8 7.2l3-1 2.9 1v5.7L24 27.8c-.2-.1-.4-.1-.5 0l-3 1 .7-5.6zm6 7.5v6.5l-3.7-1.3c-.2-.1-.4-.1-.5 0l-3.5 1.2.8-6.5 3.5-1.2 3.4 1.3zM22.1 16h5.1v5.5l-2.7-.9c-.2-.1-.4-.1-.5 0l-2.5.9.6-5.5zm6.7 14.7l3.4-1.2 3.5 1.2.8 6.5-3.5-1.3c-.2-.1-.4-.1-.5 0l-3.7 1.3v-6.5zm0-7.5l2.9-1 3 1 .7 5.6-3-1c-.2-.1-.4-.1-.5 0l-3.2 1.1.1-5.7zm0-7.2h5.1l.7 5.4-2.6-.9c-.2-.1-.4-.1-.5 0l-2.7.9V16zm11.8 0l1.3 5.4-2.4-.8c-.2-.1-.4-.1-.5 0l-2.8 1-.6-5.6h5zm1.8 7.2l1.4 5.5-2.7-1c-.2-.1-.4-.1-.5 0L37.2 29l-.7-5.8 2.8-1 3.1 1zm3.5 13.9l-3.3-1.2c-.2-.1-.4-.1-.5 0l-3.8 1.3-.8-6.6 3.4-1.2 3.5 1.2 1.5 6.5zm2 1.2s0-.1 0 0v-.1-.1l-5.8-23.2c-.1-.4-.4-.6-.8-.6H14.7c-.4 0-.7.3-.8.6L8.1 38.2v2.6c0 .3.1.5.3.7s.5.2.8.1l4.5-1.6 4.5 1.6c.2.1.4.1.5 0l4.5-1.6 4.5 1.6c.2.1.4.1.5 0l4.5-1.6 4.5 1.6c.2.1.4.1.5 0l4.5-1.6 4.5 1.6h.3c.5 0 .8-.4.8-.8v-2.5c.1.1.1 0 .1 0z"/>
    </defs>
    <clipPath id="j">
      <use overflow="visible" xlink:href="#i"/>
    </clipPath>
    <g clip-path="url(#j)">
      <defs>
        <path id="k" d="M-801-439.6H205.5V647.2H-801z"/>
      </defs>
      <clipPath id="l">
        <use overflow="visible" xlink:href="#k"/>
      </clipPath>
      <path fill="#8731b8" d="M4.4 10.6h47.2v34.7H4.4z" clip-path="url(#l)"/>
    </g>
  </g>
  <g>
    <defs>
      <path id="m" d="M28 15.9c1.3-.1 13.4 0 13.4 0L45 30.6l-3.6-1.4-4.9 1.4-4.7-1.4-3.8 1.3V15.9z"/>
    </defs>
    <clipPath id="n">
      <use overflow="visible" xlink:href="#m"/>
    </clipPath>
    <g clip-path="url(#n)">
      <defs>
        <path id="o" d="M-801-439.6H205.5V647.2H-801z"/>
      </defs>
      <clipPath id="p">
        <use overflow="visible" xlink:href="#o"/>
      </clipPath>
      <path fill="#8731b8" d="M24.3 12.1h24.3v22.1H24.3z" clip-path="url(#p)" opacity=".4"/>
    </g>
  </g>
</svg>
