<svg xmlns="http://www.w3.org/2000/svg" xmlns:xlink="http://www.w3.org/1999/xlink" id="Layer_1" x="0" y="0" version="1.1" xml:space="preserve" viewBox="0 0 56 56" width="56" height="56">
  <style>
    .st2{fill:none;stroke:#8731b8;stroke-width:.4;stroke-miterlimit:10}
  </style>
  <defs>
    <path id="SVGID_1_" d="M28 42.8c-8.2 0-14.8-6.6-14.8-14.8 0-8.2 6.6-14.8 14.8-14.8 8.2 0 14.8 6.6 14.8 14.8 0 8.2-6.6 14.8-14.8 14.8zm0-31.2c-9.1 0-16.4 7.4-16.4 16.4 0 9.1 7.4 16.4 16.4 16.4 9.1 0 16.4-7.4 16.4-16.4 0-9.1-7.3-16.4-16.4-16.4z"/>
  </defs>
  <clipPath id="SVGID_2_">
    <use overflow="visible" xlink:href="#SVGID_1_"/>
  </clipPath>
  <g clip-path="url(#SVGID_2_)">
    <defs>
      <path id="SVGID_3_" d="M-639.2-440.3H367.3V646.5H-639.2z"/>
    </defs>
    <clipPath id="SVGID_4_">
      <use overflow="visible" xlink:href="#SVGID_3_"/>
    </clipPath>
    <path fill="#8731b8" d="M7.9 7.9h40.2v40.2H7.9z" clip-path="url(#SVGID_4_)"/>
  </g>
  <path d="M28 42.8c-8.2 0-14.8-6.6-14.8-14.8 0-8.2 6.6-14.8 14.8-14.8 8.2 0 14.8 6.6 14.8 14.8 0 8.2-6.6 14.8-14.8 14.8zm0-31.2c-9.1 0-16.4 7.4-16.4 16.4 0 9.1 7.4 16.4 16.4 16.4S44.4 37.1 44.4 28c0-9.1-7.3-16.4-16.4-16.4z" class="st2"/>
  <defs>
    <path id="SVGID_5_" d="M28 7.7c-.5 0-.8.4-.8.8v1.2c0 .5.4.8.8.8s.8-.4.8-.8V8.6c0-.5-.3-.9-.8-.9z"/>
  </defs>
  <clipPath id="SVGID_6_">
    <use overflow="visible" xlink:href="#SVGID_5_"/>
  </clipPath>
  <g clip-path="url(#SVGID_6_)">
    <defs>
      <path id="SVGID_7_" d="M-639.2-440.3H367.3V646.5H-639.2z"/>
    </defs>
    <clipPath id="SVGID_8_">
      <use overflow="visible" xlink:href="#SVGID_7_"/>
    </clipPath>
    <path fill="#8731b8" d="M23.5 4.1h9v10.2h-9z" clip-path="url(#SVGID_8_)"/>
  </g>
  <path d="M28 7.7c-.5 0-.8.4-.8.8v1.2c0 .5.4.8.8.8s.8-.4.8-.8V8.6c0-.5-.3-.9-.8-.9z" class="st2"/>
  <defs>
    <path id="SVGID_9_" d="M21.8 10.9l-.5-1.1c-.1-.3-.4-.5-.6-.5-.3 0-.6.1-.8.3-.2.2-.2.5-.1.8l.5 1.1c.2.4.7.6 1.1.4.4-.2.6-.6.4-1z"/>
  </defs>
  <clipPath id="SVGID_10_">
    <use overflow="visible" xlink:href="#SVGID_9_"/>
  </clipPath>
  <g clip-path="url(#SVGID_10_)">
    <defs>
      <path id="SVGID_11_" d="M-639.2-440.3H367.3V646.5H-639.2z"/>
    </defs>
    <clipPath id="SVGID_12_">
      <use overflow="visible" xlink:href="#SVGID_11_"/>
    </clipPath>
    <path fill="#8731b8" d="M16.1 5.5h9.5v10.1h-9.5z" clip-path="url(#SVGID_12_)"/>
  </g>
  <path d="M21.8 10.9l-.5-1.1c-.1-.3-.4-.5-.6-.5-.3 0-.6.1-.8.3-.2.2-.2.5-.1.8l.5 1.1c.2.4.7.6 1.1.4.4-.2.6-.6.4-1z" class="st2"/>
  <defs>
    <path id="SVGID_13_" d="M11.5 20.3l-1.1-.5c-.3-.1-.6-.1-.8.1-.2.2-.4.5-.3.8 0 .3.2.5.5.6l1.1.5c.3.1.6.1.8-.1.2-.2.4-.5.3-.8-.1-.3-.2-.5-.5-.6z"/>
  </defs>
  <clipPath id="SVGID_14_">
    <use overflow="visible" xlink:href="#SVGID_13_"/>
  </clipPath>
  <g clip-path="url(#SVGID_14_)">
    <defs>
      <path id="SVGID_15_" d="M-639.2-440.3H367.3V646.5H-639.2z"/>
    </defs>
    <clipPath id="SVGID_16_">
      <use overflow="visible" xlink:href="#SVGID_15_"/>
    </clipPath>
    <path fill="#8731b8" d="M5.5 16.1h10.1v9.5H5.5z" clip-path="url(#SVGID_16_)"/>
  </g>
  <path d="M11.5 20.3l-1.1-.5c-.3-.1-.6-.1-.8.1-.2.2-.4.5-.3.8 0 .3.2.5.5.6l1.1.5c.3.1.6.1.8-.1.2-.2.4-.5.3-.8s-.2-.5-.5-.6z" class="st2"/>
  <defs>
    <path id="SVGID_17_" d="M9.8 27.2H8.6c-.5 0-.8.4-.8.8s.4.8.8.8h1.2c.5 0 .8-.4.8-.8s-.4-.8-.8-.8z"/>
  </defs>
  <clipPath id="SVGID_18_">
    <use overflow="visible" xlink:href="#SVGID_17_"/>
  </clipPath>
  <g clip-path="url(#SVGID_18_)">
    <defs>
      <path id="SVGID_19_" d="M-639.2-440.3H367.3V646.5H-639.2z"/>
    </defs>
    <clipPath id="SVGID_20_">
      <use overflow="visible" xlink:href="#SVGID_19_"/>
    </clipPath>
    <path fill="#8731b8" d="M4.1 23.5h10.2v9H4.1z" clip-path="url(#SVGID_20_)"/>
  </g>
  <path d="M9.8 27.2H8.6c-.5 0-.8.4-.8.8 0 .5.4.8.8.8h1.2c.5 0 .8-.4.8-.8 0-.5-.4-.8-.8-.8z" class="st2"/>
  <defs>
    <path id="SVGID_21_" d="M11.9 34.7c-.2-.4-.7-.6-1.1-.4l-1.1.5c-.3.1-.5.4-.5.6 0 .3.1.6.3.8s.5.2.8.1l1.1-.5c.5-.2.7-.7.5-1.1z"/>
  </defs>
  <clipPath id="SVGID_22_">
    <use overflow="visible" xlink:href="#SVGID_21_"/>
  </clipPath>
  <g clip-path="url(#SVGID_22_)">
    <defs>
      <path id="SVGID_23_" d="M-639.2-440.3H367.3V646.5H-639.2z"/>
    </defs>
    <clipPath id="SVGID_24_">
      <use overflow="visible" xlink:href="#SVGID_23_"/>
    </clipPath>
    <path fill="#8731b8" d="M5.5 30.5h10.1V40H5.5z" clip-path="url(#SVGID_24_)"/>
  </g>
  <path d="M11.9 34.7c-.2-.4-.7-.6-1.1-.4l-1.1.5c-.3.1-.5.4-.5.6 0 .3.1.6.3.8.2.2.5.2.8.1l1.1-.5c.5-.2.7-.7.5-1.1z" class="st2"/>
  <defs>
    <path id="SVGID_25_" d="M15.7 40.3c-.3-.3-.8-.3-1.2 0l-.9.9c-.3.3-.3.8 0 1.1.3.3.8.3 1.1 0l.9-.9c.4-.3.4-.8.1-1.1z"/>
  </defs>
  <clipPath id="SVGID_26_">
    <use overflow="visible" xlink:href="#SVGID_25_"/>
  </clipPath>
  <g clip-path="url(#SVGID_26_)">
    <defs>
      <path id="SVGID_27_" d="M-639.2-440.3H367.3V646.5H-639.2z"/>
    </defs>
    <clipPath id="SVGID_28_">
      <use overflow="visible" xlink:href="#SVGID_27_"/>
    </clipPath>
    <path fill="#8731b8" d="M9.8 36.4h9.9v9.9H9.8z" clip-path="url(#SVGID_28_)"/>
  </g>
  <path d="M15.7 40.3c-.3-.3-.8-.3-1.2 0l-.9.9c-.3.3-.3.8 0 1.1.3.3.8.3 1.1 0l.9-.9c.4-.3.4-.8.1-1.1z" class="st2"/>
  <defs>
    <path id="SVGID_29_" d="M28 45.4c-.5 0-.8.4-.8.8v1.2c0 .5.4.8.8.8s.8-.4.8-.8v-1.2c0-.2-.1-.4-.2-.6-.2-.1-.4-.2-.6-.2z"/>
  </defs>
  <clipPath id="SVGID_30_">
    <use overflow="visible" xlink:href="#SVGID_29_"/>
  </clipPath>
  <g clip-path="url(#SVGID_30_)">
    <defs>
      <path id="SVGID_31_" d="M-639.2-440.3H367.3V646.5H-639.2z"/>
    </defs>
    <clipPath id="SVGID_32_">
      <use overflow="visible" xlink:href="#SVGID_31_"/>
    </clipPath>
    <path fill="#8731b8" d="M23.5 41.7h9v10.2h-9z" clip-path="url(#SVGID_32_)"/>
  </g>
  <g>
    <path d="M28 45.4c-.5 0-.8.4-.8.8v1.2c0 .5.4.8.8.8s.8-.4.8-.8v-1.2c0-.2-.1-.4-.2-.6-.2-.1-.4-.2-.6-.2z" class="st2"/>
  </g>
  <g>
    <defs>
      <path id="SVGID_33_" d="M36.2 45.7l-.5-1.1c-.2-.4-.7-.6-1.1-.4-.4.2-.6.6-.4 1.1l.5 1.1c.2.4.7.6 1.1.4s.6-.7.4-1.1z"/>
    </defs>
    <clipPath id="SVGID_34_">
      <use overflow="visible" xlink:href="#SVGID_33_"/>
    </clipPath>
    <g clip-path="url(#SVGID_34_)">
      <defs>
        <path id="SVGID_35_" d="M-639.2-440.3H367.3V646.5H-639.2z"/>
      </defs>
      <clipPath id="SVGID_36_">
        <use overflow="visible" xlink:href="#SVGID_35_"/>
      </clipPath>
      <path fill="#8731b8" d="M30.5 40.3H40v10.1h-9.5z" clip-path="url(#SVGID_36_)"/>
    </g>
  </g>
  <g>
    <defs>
      <path id="SVGID_37_" d="M42.3 41.2l-.9-.9c-.2-.2-.5-.3-.8-.2-.3.1-.5.3-.6.6-.1.3 0 .6.2.8l.9.9c.2.2.5.3.8.2.3-.1.5-.3.6-.6.1-.3 0-.6-.2-.8z"/>
    </defs>
    <clipPath id="SVGID_38_">
      <use overflow="visible" xlink:href="#SVGID_37_"/>
    </clipPath>
    <g clip-path="url(#SVGID_38_)">
      <defs>
        <path id="SVGID_39_" d="M-639.2-440.3H367.3V646.5H-639.2z"/>
      </defs>
      <clipPath id="SVGID_40_">
        <use overflow="visible" xlink:href="#SVGID_39_"/>
      </clipPath>
      <path fill="#8731b8" d="M36.4 36.4h9.9v9.9h-9.9z" clip-path="url(#SVGID_40_)"/>
    </g>
  </g>
  <g>
    <path d="M42.3 41.2l-.9-.9c-.2-.2-.5-.3-.8-.2-.3.1-.5.3-.6.6-.1.3 0 .6.2.8l.9.9c.2.2.5.3.8.2.3-.1.5-.3.6-.6.1-.3 0-.6-.2-.8z" class="st2"/>
  </g>
  <g>
    <defs>
      <path id="SVGID_41_" d="M47.4 27.2h-1.2c-.5 0-.8.4-.8.8s.4.8.8.8h1.2c.5 0 .8-.4.8-.8s-.3-.8-.8-.8z"/>
    </defs>
    <clipPath id="SVGID_42_">
      <use overflow="visible" xlink:href="#SVGID_41_"/>
    </clipPath>
    <g clip-path="url(#SVGID_42_)">
      <defs>
        <path id="SVGID_43_" d="M-639.2-440.3H367.3V646.5H-639.2z"/>
      </defs>
      <clipPath id="SVGID_44_">
        <use overflow="visible" xlink:href="#SVGID_43_"/>
      </clipPath>
      <path fill="#8731b8" d="M41.7 23.5h10.2v9H41.7z" clip-path="url(#SVGID_44_)"/>
    </g>
  </g>
  <g>
    <defs>
      <path id="SVGID_45_" d="M46.7 20.2c-.2-.4-.7-.6-1.1-.4l-1.1.5c-.3.1-.5.4-.5.6 0 .3.1.6.3.8.2.2.5.2.8.1l1.1-.5c.5-.2.7-.6.5-1.1z"/>
    </defs>
    <clipPath id="SVGID_46_">
      <use overflow="visible" xlink:href="#SVGID_45_"/>
    </clipPath>
    <g clip-path="url(#SVGID_46_)">
      <defs>
        <path id="SVGID_47_" d="M-639.2-440.3H367.3V646.5H-639.2z"/>
      </defs>
      <clipPath id="SVGID_48_">
        <use overflow="visible" xlink:href="#SVGID_47_"/>
      </clipPath>
      <path fill="#8731b8" d="M40.3 16.1h10.1v9.5H40.3z" clip-path="url(#SVGID_48_)"/>
    </g>
  </g>
  <g>
    <defs>
      <path id="SVGID_49_" d="M42.6 13.4c-.3-.3-.8-.3-1.2 0l-1.1 1.1c-.2.2-.3.5-.2.8.1.3.3.5.6.6.3.1.6 0 .8-.2l1.1-1.1c.4-.4.4-.9 0-1.2z"/>
    </defs>
    <clipPath id="SVGID_50_">
      <use overflow="visible" xlink:href="#SVGID_49_"/>
    </clipPath>
    <g clip-path="url(#SVGID_50_)">
      <defs>
        <path id="SVGID_51_" d="M-639.2-440.3H367.3V646.5H-639.2z"/>
      </defs>
      <clipPath id="SVGID_52_">
        <use overflow="visible" xlink:href="#SVGID_51_"/>
      </clipPath>
      <path fill="#8731b8" d="M36.4 9.4h10.1v10.1H36.4z" clip-path="url(#SVGID_52_)"/>
    </g>
  </g>
  <g>
    <defs>
      <path id="SVGID_53_" d="M35.8 9.3c-.4-.2-.9 0-1.1.4l-.5 1.1c-.1.3-.1.6.1.8s.5.4.8.3c.3 0 .5-.2.6-.5l.5-1.1c.2-.4 0-.8-.4-1z"/>
    </defs>
    <clipPath id="SVGID_54_">
      <use overflow="visible" xlink:href="#SVGID_53_"/>
    </clipPath>
    <g clip-path="url(#SVGID_54_)">
      <defs>
        <path id="SVGID_55_" d="M-639.2-440.3H367.3V646.5H-639.2z"/>
      </defs>
      <clipPath id="SVGID_56_">
        <use overflow="visible" xlink:href="#SVGID_55_"/>
      </clipPath>
      <path fill="#8731b8" d="M30.5 5.5H40v10.1h-9.5z" clip-path="url(#SVGID_56_)"/>
    </g>
  </g>
  <g>
    <defs>
      <path id="SVGID_57_" d="M19.5 45.7l.5-1.1c.2-.4.7-.6 1.1-.4.4.2.6.6.4 1.1l-.5 1c-.2.4-.7.6-1.1.4-.4-.2-.6-.6-.4-1z"/>
    </defs>
    <clipPath id="SVGID_58_">
      <use overflow="visible" xlink:href="#SVGID_57_"/>
    </clipPath>
    <g clip-path="url(#SVGID_58_)">
      <defs>
        <path id="SVGID_59_" d="M-639.2-440.3H367.3V646.5H-639.2z"/>
      </defs>
      <clipPath id="SVGID_60_">
        <use overflow="visible" xlink:href="#SVGID_59_"/>
      </clipPath>
      <path fill="#8731b8" d="M15.7 40.3h9.5v10.1h-9.5z" clip-path="url(#SVGID_60_)"/>
    </g>
  </g>
  <g>
    <defs>
      <path id="SVGID_61_" d="M44.6 34.7c.2-.4.7-.6 1.1-.4l1.1.5c.3.1.5.4.5.6 0 .3-.1.6-.3.8-.2.2-.5.2-.8.1l-1.1-.5c-.2-.1-.4-.2-.4-.4-.1-.3-.1-.5-.1-.7z"/>
    </defs>
    <clipPath id="SVGID_62_">
      <use overflow="visible" xlink:href="#SVGID_61_"/>
    </clipPath>
    <g clip-path="url(#SVGID_62_)">
      <defs>
        <path id="SVGID_63_" d="M-639.2-440.3H367.3V646.5H-639.2z"/>
      </defs>
      <clipPath id="SVGID_64_">
        <use overflow="visible" xlink:href="#SVGID_63_"/>
      </clipPath>
      <path fill="#8731b8" d="M40.9 30.5H51V40H40.9z" clip-path="url(#SVGID_64_)"/>
    </g>
  </g>
  <g>
    <defs>
      <path id="SVGID_65_" d="M13.1 13.4c.3-.3.8-.3 1.2 0l1.1 1.1c.2.2.3.5.2.8-.1.3-.3.5-.6.6-.3.1-.6 0-.8-.2l-1.1-1.1c-.3-.4-.3-.9 0-1.2z"/>
    </defs>
    <clipPath id="SVGID_66_">
      <use overflow="visible" xlink:href="#SVGID_65_"/>
    </clipPath>
    <g clip-path="url(#SVGID_66_)">
      <defs>
        <path id="SVGID_67_" d="M-639.2-440.3H367.3V646.5H-639.2z"/>
      </defs>
      <clipPath id="SVGID_68_">
        <use overflow="visible" xlink:href="#SVGID_67_"/>
      </clipPath>
      <path fill="#8731b8" d="M9.2 9.4h10.1v10.1H9.2z" clip-path="url(#SVGID_68_)"/>
    </g>
  </g>
  <g>
    <defs>
      <path id="SVGID_69_" d="M25.5 28.1l3.5-4.2v4.8c0 .4.3.7.7.7h1.7l-3.5 4.2v-4.8c0-.2-.1-.3-.2-.5-.1-.1-.3-.2-.5-.2h-1.7zM27 36c.3.1.6 0 .7-.2l5.5-6.7c.2-.2.2-.5.1-.7-.1-.2-.3-.4-.6-.4h-2.4v-6c0-.3-.2-.5-.4-.6-.3-.1-.6 0-.7.2l-5.5 6.7c-.2.2-.2.5-.1.7.1.2.3.4.6.4h2.4v6c-.1.3.1.5.4.6z"/>
    </defs>
    <clipPath id="SVGID_70_">
      <use overflow="visible" xlink:href="#SVGID_69_"/>
    </clipPath>
    <g clip-path="url(#SVGID_70_)">
      <defs>
        <path id="SVGID_71_" d="M-639.2-440.3H367.3V646.5H-639.2z"/>
      </defs>
      <clipPath id="SVGID_72_">
        <use overflow="visible" xlink:href="#SVGID_71_"/>
      </clipPath>
      <path fill="#8731b8" d="M19.8 17.7h17.3v22H19.8z" clip-path="url(#SVGID_72_)"/>
    </g>
  </g>
  <g>
    <defs>
      <path id="SVGID_73_" d="M23.9 27.7l5.5-6v6.4h2.7l-5.5 6.2.4-6.2z"/>
    </defs>
    <clipPath id="SVGID_74_">
      <use overflow="visible" xlink:href="#SVGID_73_"/>
    </clipPath>
    <g clip-path="url(#SVGID_74_)">
      <defs>
        <path id="SVGID_75_" d="M-639.2-440.3H367.3V646.5H-639.2z"/>
      </defs>
      <clipPath id="SVGID_76_">
        <use overflow="visible" xlink:href="#SVGID_75_"/>
      </clipPath>
      <path fill="#2c37b7" d="M20.3 18.1h15.5V38H20.3z" clip-path="url(#SVGID_76_)" opacity=".4"/>
    </g>
  </g>
  <g>
    <defs>
      <path id="SVGID_77_" d="M25.5 28.1l3.5-4.2v4.8c0 .4.3.7.7.7h1.7l-3.5 4.2v-4.8c0-.2-.1-.3-.2-.5-.1-.1-.3-.2-.5-.2h-1.7zM27 36c.3.1.6 0 .7-.2l5.5-6.7c.2-.2.2-.5.1-.7-.1-.2-.3-.4-.6-.4h-2.4v-6c0-.3-.2-.5-.4-.6-.3-.1-.6 0-.7.2l-5.5 6.7c-.2.2-.2.5-.1.7.1.2.3.4.6.4h2.4v6c-.1.3.1.5.4.6z"/>
    </defs>
    <clipPath id="SVGID_78_">
      <use overflow="visible" xlink:href="#SVGID_77_"/>
    </clipPath>
    <g clip-path="url(#SVGID_78_)">
      <defs>
        <path id="SVGID_79_" d="M-639.2-440.3H367.3V646.5H-639.2z"/>
      </defs>
      <clipPath id="SVGID_80_">
        <use overflow="visible" xlink:href="#SVGID_79_"/>
      </clipPath>
      <path fill="#8731b8" d="M19.8 17.7h17.3v22H19.8z" clip-path="url(#SVGID_80_)"/>
    </g>
  </g>
  <g>
    <defs>
      <path id="SVGID_81_" d="M23.9 27.7l5.5-6v6.4h2.7l-5.5 6.2.4-6.2z"/>
    </defs>
    <clipPath id="SVGID_82_">
      <use overflow="visible" xlink:href="#SVGID_81_"/>
    </clipPath>
    <g clip-path="url(#SVGID_82_)">
      <defs>
        <path id="SVGID_83_" d="M-639.2-440.3H367.3V646.5H-639.2z"/>
      </defs>
      <clipPath id="SVGID_84_">
        <use overflow="visible" xlink:href="#SVGID_83_"/>
      </clipPath>
      <path fill="#2c37b7" d="M20.3 18.1h15.5V38H20.3z" clip-path="url(#SVGID_84_)" opacity=".4"/>
    </g>
  </g>
</svg>
