<svg xmlns="http://www.w3.org/2000/svg" xmlns:xlink="http://www.w3.org/1999/xlink" viewBox="0 0 56 56" width="56" height="56">
  <defs>
    <path id="a" d="M43.7 42.8H12.3c-.2 0-.3-.2-.3-.3v-2.1c0-.2.2-.3.3-.3h31.3c.2 0 .3.2.3.3v2.1c.1.1 0 .3-.2.3zM15.1 13.6c0-.2.2-.3.3-.3h25.2c.2 0 .3.2.3.3v24.5c0 .2-.2.3-.3.3H15.4c-.2 0-.3-.1-.3-.3V13.6zm28.6 24.9h-1.2V13.6c0-1-.8-1.9-1.9-1.9H15.4c-1 0-1.9.8-1.9 1.9v24.8h-1.2c-1 0-1.9.8-1.9 1.9v2.1c0 1 .8 1.9 1.9 1.9h31.3c1 0 1.9-.8 1.9-1.9v-2.1c0-1-.8-1.8-1.8-1.8z"/>
  </defs>
  <clipPath id="b">
    <use overflow="visible" xlink:href="#a"/>
  </clipPath>
  <g clip-path="url(#b)">
    <defs>
      <path id="c" d="M-152.4-600.3H854.1V486.5H-152.4z"/>
    </defs>
    <clipPath id="d">
      <use overflow="visible" xlink:href="#c"/>
    </clipPath>
    <path fill="#8731b8" d="M6.8 8h42.5v40H6.8z" clip-path="url(#d)"/>
  </g>
  <defs>
    <path id="e" d="M25.9 35.8h-8.3V15.9h8.3v19.9zm.8-21.4h-9.8c-.2 0-.4.1-.5.2s-.2.3-.2.5v21.4c0 .2.1.4.2.5s.3.2.5.2h9.8c.2 0 .4-.1.5-.2s.2-.3.2-.5V15.1c0-.2-.1-.4-.2-.5s-.3-.2-.5-.2z"/>
  </defs>
  <clipPath id="f">
    <use overflow="visible" xlink:href="#e"/>
  </clipPath>
  <g clip-path="url(#f)">
    <defs>
      <path id="g" d="M-152.4-600.3H854.1V486.5H-152.4z"/>
    </defs>
    <clipPath id="h">
      <use overflow="visible" xlink:href="#g"/>
    </clipPath>
    <path fill="#8731b8" d="M12.4 10.7h18.7V41H12.4z" clip-path="url(#h)"/>
  </g>
  <g>
    <defs>
      <path id="i" d="M24.3 23.8c-.2 0-.4.1-.5.2s-.2.3-.2.5V27c0 .4.3.8.8.8s.8-.3.8-.8v-2.5c0-.2-.1-.4-.2-.5-.3-.1-.5-.2-.7-.2z"/>
    </defs>
    <clipPath id="j">
      <use overflow="visible" xlink:href="#i"/>
    </clipPath>
    <g clip-path="url(#j)">
      <defs>
        <path id="k" d="M-152.4-600.3H854.1V486.5H-152.4z"/>
      </defs>
      <clipPath id="l">
        <use overflow="visible" xlink:href="#k"/>
      </clipPath>
      <path fill="#8731b8" d="M19.9 20.1h8.9v11.4h-8.9z" clip-path="url(#l)"/>
    </g>
  </g>
  <g>
    <defs>
      <path id="m" d="M38.3 35.8H30V15.9h8.3v19.9zm.8-21.4h-9.8c-.2 0-.4.1-.5.2-.1.1-.2.3-.2.5v21.4c0 .2.1.4.2.5.1.1.3.2.5.2h9.8c.2 0 .4-.1.5-.2s.2-.3.2-.5V15.1c0-.2-.1-.4-.2-.5s-.3-.2-.5-.2z"/>
    </defs>
    <clipPath id="n">
      <use overflow="visible" xlink:href="#m"/>
    </clipPath>
    <g clip-path="url(#n)">
      <defs>
        <path id="o" d="M-152.4-600.3H854.1V486.5H-152.4z"/>
      </defs>
      <clipPath id="p">
        <use overflow="visible" xlink:href="#o"/>
      </clipPath>
      <path fill="#8731b8" d="M24.9 10.7h18.7V41H24.9z" clip-path="url(#p)"/>
    </g>
  </g>
  <g>
    <defs>
      <path id="q" d="M31.7 23.8c-.2 0-.4.1-.5.2-.1.1-.2.3-.2.5V27c0 .4.4.7.8.8.2 0 .4-.1.5-.2.1-.1.2-.3.2-.5v-2.5c0-.2-.1-.4-.2-.5s-.4-.3-.6-.3z"/>
    </defs>
    <clipPath id="r">
      <use overflow="visible" xlink:href="#q"/>
    </clipPath>
    <g clip-path="url(#r)">
      <defs>
        <path id="s" d="M-152.4-600.3H854.1V486.5H-152.4z"/>
      </defs>
      <clipPath id="t">
        <use overflow="visible" xlink:href="#s"/>
      </clipPath>
      <path fill="#8731b8" d="M27.2 20.1h8.9v11.4h-8.9z" clip-path="url(#t)"/>
    </g>
  </g>
  <g>
    <defs>
      <path id="u" d="M17.1 15.7h9.6v21.4h-9.6z"/>
    </defs>
    <clipPath id="v">
      <use overflow="visible" xlink:href="#u"/>
    </clipPath>
    <g clip-path="url(#v)">
      <defs>
        <path id="w" d="M-152.4-600.3H854.1V486.5H-152.4z"/>
      </defs>
      <clipPath id="x">
        <use overflow="visible" xlink:href="#w"/>
      </clipPath>
      <path fill="#8731b8" d="M13.4 12h16.9v28.7H13.4z" clip-path="url(#x)" opacity=".4"/>
    </g>
  </g>
</svg>
