<svg style="fill:#8731b8;" id="Layer_35" enable-background="new 0 0 64 64" height="512" viewBox="0 0 64 64" width="512" xmlns="http://www.w3.org/2000/svg"><g><path d="m56 31h-3v-5c0-1.654-1.346-3-3-3h-36c-1.654 0-3 1.346-3 3v5h-2v2h2v5c0 1.654 1.346 3 3 3h36c1.654 0 3-1.346 3-3v-5h2v9.153l-23.165 3.861c-.481.08-.835.497-.835.986v4h-3c-.552 0-1 .448-1 1v10c0 .552.448 1 1 1h8c.552 0 1-.448 1-1v-10c0-.552-.448-1-1-1h-3v-3.153l23.165-3.861c.481-.08.835-.497.835-.986v-11c0-.552-.448-1-1-1zm-5 7c0 .551-.449 1-1 1h-36c-.551 0-1-.449-1-1v-12c0-.551.449-1 1-1h36c.551 0 1 .449 1 1zm-16 23h-6v-8h6z"/><path d="m11 1h2v20h-2z"/><path d="m51 11h2v10h-2z"/><path d="m51 1h2v2h-2z"/><path d="m51 5h2v4h-2z"/><path d="m17 2h2v13h-2z"/><path d="m23 15h2v6h-2z"/><path d="m23 55c0 .551-.449 1-1 1s-1-.449-1-1v-6c0-1.654-1.346-3-3-3s-3 1.346-3 3v2c0 .551-.449 1-1 1s-1-.449-1-1v-8h-2v8c0 1.654 1.346 3 3 3s3-1.346 3-3v-2c0-.551.449-1 1-1s1 .449 1 1v6c0 1.654 1.346 3 3 3s3-1.346 3-3v-12h-2z"/></g></svg>