<?xml version="1.0" encoding="iso-8859-1"?>
<!-- Generator: Adobe Illustrator 19.0.0, SVG Export Plug-In . SVG Version: 6.00 Build 0)  -->
<svg xmlns="http://www.w3.org/2000/svg" xmlns:xlink="http://www.w3.org/1999/xlink" version="1.1" id="Layer_1" x="0px" y="0px" viewBox="0 0 512 512" style="fill:#8731b8;" xml:space="preserve" width="512" height="512">
<g>
	<path d="M316.359,419.94c0-0.01,0-0.01-0.01-0.01c-1.68-1.18-3.66-1.8-5.71-1.8c-3.27,0-6.34,1.6-8.21,4.27   c-3.16,4.53-2.04,10.77,2.48,13.931c1.689,1.18,3.659,1.8,5.71,1.8c3.27,0,6.34-1.6,8.21-4.28c1.529-2.189,2.109-4.84,1.64-7.47   C320.01,423.751,318.55,421.461,316.359,419.94z"/>
	<path d="M10,492c-5.51,0-10,4.49-10,10s4.49,10,10,10s10-4.49,10-10S15.51,492,10,492z"/>
	<path d="M502,492h-52.067c-4.525-31.513-19.04-60.483-41.448-82.363c-16.659-16.267-36.694-27.626-58.307-33.355   c1.667-14.239-0.125-28.764-5.413-42.558l-21.303-55.575c-1.954-5.096-7.633-7.687-12.758-5.817l-66.592,24.237L160.97,82.346   l26.397-27.88c2.604-2.75,3.431-6.736,2.135-10.295L175.821,6.583c-1.888-5.189-7.628-7.868-12.816-5.977L87.829,27.968   c-2.492,0.906-4.522,2.767-5.644,5.17c-1.12,2.404-1.24,5.154-0.333,7.646l13.682,37.588c1.295,3.56,4.49,6.081,8.253,6.515   l38.433,4.423l83.096,214.102l-64.961,23.643c-2.521,0.917-4.566,2.808-5.679,5.247c-1.112,2.44-1.198,5.225-0.239,7.728   l21.371,55.753c-47.9,13.485-88.886,48.209-111.299,96.216H50c-5.51,0-10,4.49-10,10s4.49,10,10,10h452c5.51,0,10-4.49,10-10   S507.51,492,502,492z M112.214,65.725l-8.147-22.384l56.382-20.52l8.146,22.383L145.534,69.56L112.214,65.725z M195.388,390.984   l-18.635-48.615l55.8-20.309c0,0,7.67,19.763,7.677,19.779c1.906,4.911,7.772,7.713,12.94,5.704   c5.148-1.998,7.702-7.792,5.704-12.94l-7.523-19.384l56.956-20.73l17.784,46.394c3.951,10.307,5.377,21.136,4.33,31.789   c-4.324-0.442-8.686-0.671-13.075-0.671c-24.341,0-48.03,6.892-68.777,19.97c-9.216-1.576-18.574-2.38-28.028-2.38   c-0.024,0-0.047,0.003-0.071,0.004c-8.401,0.003-16.708,0.651-24.871,1.901C195.531,391.323,195.454,391.157,195.388,390.984z    M220,492h-58.261v-7.392c0-12.467,13.067-22.608,29.13-22.608S220,472.142,220,484.609V492z M372,492c-5.514,0-10-4.486-10-10   c0-5.514,4.486-10,10-10s10,4.486,10,10C382,487.514,377.514,492,372,492z M400.28,492c1.11-3.13,1.72-6.494,1.72-10   c0-16.542-13.458-30-30-30s-30,13.458-30,30c0,3.506,0.61,6.87,1.72,10H240v-7.392C240,461.115,217.96,442,190.869,442   c-27.09,0-49.13,19.114-49.13,42.608V492H86.878c27.187-50.52,78.174-82.407,133.658-82.407c17.031,0,35.059,3.204,51.283,9.297   c4.894,1.838,10.929-0.66,12.881-5.849c1.939-5.16-0.69-10.94-5.851-12.88c-0.472-0.177-0.948-0.343-1.421-0.515   c12.684-5.032,26.181-7.645,39.917-7.645c55.296,0,102.787,43.118,112.347,99.999H400.28z"/>
</g>















</svg>
