<?xml version="1.0" standalone="no"?>
<!DOCTYPE svg PUBLIC "-//W3C//DTD SVG 20010904//EN"
 "http://www.w3.org/TR/2001/REC-SVG-20010904/DTD/svg10.dtd">
<svg version="1.0" xmlns="http://www.w3.org/2000/svg"
 width="500.000000pt" height="500.000000pt" viewBox="0 0 500.000000 500.000000"
 preserveAspectRatio="xMidYMid meet" >
<metadata>
Created by potrace 1.16, written by Peter Selinger 2001-2019
</metadata>
<g transform="translate(0.000000,500.000000) scale(0.100000,-0.100000)"
fill="#8731b8" stroke="none">
<path d="M3750 3205 c-201 -118 -366 -221 -368 -230 -2 -8 -28 -22 -60 -32
-49 -16 -90 -18 -292 -15 -276 4 -394 -3 -386 -24 4 -11 -16 -14 -109 -14 -70
0 -115 -4 -115 -10 0 -5 28 -11 63 -12 34 0 46 -3 27 -5 -71 -7 -100 -14 -100
-25 0 -10 89 -7 197 8 37 5 41 4 37 -12 -5 -18 9 -19 348 -19 256 1 361 4 382
13 16 7 50 14 77 17 41 3 49 1 54 -16 4 -11 12 -18 18 -16 7 3 173 102 369
221 l358 216 15 -30 c9 -17 18 -30 21 -30 7 0 -35 74 -79 140 -39 58 -68 90
-81 89 -6 0 -175 -97 -376 -214z"/>
<path d="M2488 2651 c-43 -21 -79 -34 -81 -28 -7 21 -356 -97 -503 -171 -32
-16 -71 -32 -86 -36 -16 -3 -28 -12 -28 -19 0 -23 42 -137 50 -137 20 0 40 13
40 26 0 25 306 165 480 219 30 9 61 19 69 21 10 3 10 8 2 18 -9 11 -1 15 41
20 102 14 148 27 148 43 0 9 -6 13 -14 10 -8 -3 -32 -8 -53 -12 l-38 -6 38 17
c39 17 49 34 20 35 -14 0 -13 2 5 9 12 5 22 14 22 20 0 19 -34 10 -112 -29z"/>
<path d="M2829 2545 c-81 -28 -109 -43 -109 -57 0 -5 9 -8 19 -5 14 3 18 1 14
-9 -6 -17 20 -19 48 -4 33 18 21 3 -16 -20 -36 -22 -45 -40 -22 -40 15 0 86
45 136 87 30 26 32 32 22 51 -14 26 -9 26 -92 -3z"/>
<path d="M2758 2292 c-65 -32 -88 -49 -88 -63 0 -28 20 -32 102 -19 107 16
148 29 148 45 0 8 -1 15 -2 15 -2 0 -25 -7 -52 -15 -27 -8 -56 -15 -65 -14 -9
0 -1 5 17 10 18 6 32 16 32 25 0 11 -6 14 -22 9 -16 -5 -13 0 10 14 32 21 43
42 20 39 -7 -1 -52 -21 -100 -46z"/>
<path d="M2878 2093 c-97 -35 -130 -61 -64 -50 30 5 33 3 29 -14 -6 -23 0 -24
32 -3 14 9 25 14 25 11 0 -3 -22 -19 -50 -37 -50 -32 -63 -50 -36 -50 18 0
123 70 163 110 27 26 31 36 22 51 -12 23 -4 24 -121 -18z"/>
</g>
</svg>
