<?xml version="1.0" standalone="no"?>
<!DOCTYPE svg PUBLIC "-//W3C//DTD SVG 20010904//EN"
 "http://www.w3.org/TR/2001/REC-SVG-20010904/DTD/svg10.dtd">
<svg version="1.0" xmlns="http://www.w3.org/2000/svg"
 width="500.000000pt" height="500.000000pt" viewBox="0 0 500.000000 500.000000"
 preserveAspectRatio="xMidYMid meet">
<metadata>
Created by potrace 1.16, written by Peter Selinger 2001-2019
</metadata>
<g transform="translate(0.000000,500.000000) scale(0.100000,-0.100000)"
fill="#8731b8" stroke="none">
<path d="M2950 3860 c-41 -6 -39 -7 28 -8 l72 -2 0 -220 0 -221 -25 -24 c-18
-19 -35 -25 -70 -25 l-45 0 0 -39 c0 -32 4 -40 23 -45 40 -11 63 -6 83 17 41
45 44 69 44 327 l0 250 -32 -2 c-18 0 -53 -4 -78 -8z"/>
<path d="M2020 3623 c0 -242 2 -253 47 -253 l23 0 -2 238 -3 237 -32 3 -33 3
0 -228z"/>
<path d="M2439 2990 c-167 -26 -309 -131 -384 -285 -140 -290 12 -627 324
-719 67 -20 198 -21 267 -2 251 67 418 324 376 578 -15 88 -66 197 -122 261
-110 124 -295 191 -461 167z m39 -214 c39 -21 88 -76 101 -115 15 -47 14 -83
-6 -132 l-16 -41 138 -132 138 -131 -27 -30 -27 -30 -133 139 -134 139 -41
-16 c-199 -80 -360 168 -204 315 15 15 39 31 53 37 37 15 127 13 158 -3z"/>
<path d="M2333 2731 c-69 -32 -100 -113 -69 -184 22 -53 59 -79 117 -85 92 -9
159 50 159 137 0 111 -106 179 -207 132z"/>
<path d="M3460 2965 c-53 -17 -94 -51 -86 -72 3 -8 6 -30 6 -49 0 -33 1 -34
40 -34 l40 0 0 50 c0 41 5 56 25 75 l24 25 221 0 220 0 1 -77 2 -78 9 74 c5
41 7 80 4 87 -8 20 -441 19 -506 -1z"/>
<path d="M1610 2610 l0 -110 45 0 45 0 0 110 0 110 -45 0 -45 0 0 -110z"/>
<path d="M1700 2200 l0 -40 170 0 c94 0 170 3 170 6 0 4 -9 22 -21 40 l-21 34
-149 0 -149 0 0 -40z"/>
<path d="M1130 2180 l0 -50 240 0 240 0 0 50 0 50 -240 0 -240 0 0 -50z"/>
<path d="M2900 1562 l0 -39 60 -7 c90 -10 90 -9 90 -268 l0 -218 -75 0 c-43 0
-75 -4 -75 -10 0 -6 33 -10 80 -10 l80 0 0 248 c0 237 -1 250 -22 292 -23 45
-23 45 -80 48 l-58 3 0 -39z"/>
<path d="M2036 1494 c-14 -13 -16 -49 -16 -240 l0 -224 35 0 35 0 0 240 c0
230 -1 240 -19 240 -11 0 -27 -7 -35 -16z"/>
</g>
</svg>
