<?xml version="1.0" standalone="no"?>
<!DOCTYPE svg PUBLIC "-//W3C//DTD SVG 20010904//EN"
 "http://www.w3.org/TR/2001/REC-SVG-20010904/DTD/svg10.dtd">
<svg version="1.0" xmlns="http://www.w3.org/2000/svg"
 width="500.000000pt" height="500.000000pt" viewBox="0 0 500.000000 500.000000"
 preserveAspectRatio="xMidYMid meet">
<metadata>
Created by potrace 1.16, written by Peter Selinger 2001-2019
</metadata>
<g transform="translate(0.000000,500.000000) scale(0.100000,-0.100000)"
fill="#8731b8" stroke="none">
<path d="M2580 3581 c0 -29 2 -30 58 -36 186 -21 305 -56 457 -133 323 -166
558 -484 621 -842 28 -163 16 -391 -31 -547 -14 -48 -18 -53 -45 -53 -20 0
-30 -5 -30 -15 0 -23 -83 -178 -135 -250 -196 -275 -485 -442 -832 -480 l-63
-7 0 326 c0 275 -2 326 -14 326 -8 0 -27 11 -43 24 l-29 25 -58 -29 c-32 -16
-73 -32 -92 -36 -32 -6 -34 -9 -34 -45 0 -50 -27 -79 -75 -79 -48 0 -75 29
-75 79 0 36 -2 39 -34 45 -19 4 -60 20 -92 36 l-58 29 -29 -25 c-52 -44 -120
-23 -133 42 -5 24 0 37 21 63 l28 32 -31 67 c-17 37 -32 76 -34 87 -2 11 -12
21 -23 23 -50 7 -66 14 -85 34 -45 48 -13 117 60 127 41 6 43 7 60 61 9 30 26
69 36 87 19 32 19 32 -6 58 -75 80 32 185 111 109 26 -25 28 -25 53 -9 15 10
55 28 89 40 50 18 63 27 65 46 7 58 14 71 47 85 24 10 41 11 59 5 30 -12 39
-26 46 -75 5 -37 8 -40 56 -56 28 -9 68 -26 89 -39 l38 -22 26 25 c15 15 35
26 44 26 16 0 17 30 17 391 l0 392 -97 -7 c-389 -27 -714 -225 -913 -556 -293
-487 -165 -1136 292 -1481 184 -138 443 -228 661 -229 l57 0 0 -61 0 -62 86 7
c420 34 810 301 1004 687 173 347 175 779 4 1121 -120 241 -308 434 -544 557
-157 82 -369 141 -507 141 -41 0 -43 -1 -43 -29z"/>
<path d="M2133 2636 c-263 -86 -342 -408 -147 -603 163 -163 448 -122 560 82
33 58 34 64 34 174 0 95 -3 122 -20 157 -58 119 -175 195 -308 201 -47 2 -93
-3 -119 -11z m172 -185 c104 -47 138 -177 70 -266 -35 -47 -80 -69 -140 -69
-61 0 -105 22 -142 71 -24 31 -28 46 -28 103 0 58 4 71 29 104 32 42 95 76
141 76 17 0 48 -9 70 -19z"/>
</g>
</svg>
