<?xml version="1.0" standalone="no"?>
<!DOCTYPE svg PUBLIC "-//W3C//DTD SVG 20010904//EN"
 "http://www.w3.org/TR/2001/REC-SVG-20010904/DTD/svg10.dtd">
<svg version="1.0" xmlns="http://www.w3.org/2000/svg"
 width="500.000000pt" height="500.000000pt" viewBox="0 0 500.000000 500.000000"
 preserveAspectRatio="xMidYMid meet">
<metadata>
Created by potrace 1.16, written by Peter Selinger 2001-2019
</metadata>
<g transform="translate(0.000000,500.000000) scale(0.100000,-0.100000)"
fill="#8731b8" stroke="none">
<path d="M2071 3602 c5 -13 9 -41 9 -63 0 -21 1 -39 3 -39 1 0 24 7 51 15 27
8 62 15 78 15 27 0 28 2 28 44 l0 45 -89 3 -89 3 9 -23z"/>
<path d="M2130 3503 c-8 -2 -21 -7 -29 -9 -11 -3 -10 -9 5 -25 56 -62 162 -67
227 -11 16 14 16 16 1 34 -14 15 -32 18 -103 17 -47 0 -93 -3 -101 -6z"/>
<path d="M2383 3363 c0 -50 -4 -78 -12 -81 -45 -15 -101 -90 -101 -137 0 -25
0 -25 -89 -25 l-89 0 -11 -31 c-6 -18 -11 -45 -11 -60 0 -22 -5 -29 -19 -29
-15 0 -21 -10 -26 -42 -9 -54 -64 -111 -120 -127 -22 -6 -82 -14 -134 -18 -80
-5 -97 -10 -117 -30 -22 -22 -29 -23 -169 -23 -122 0 -145 -2 -145 -15 0 -8
-9 -15 -19 -15 -11 0 -27 -8 -37 -17 -13 -13 -19 -14 -22 -5 -4 14 -38 16 -47
2 -3 -5 -19 -7 -35 -3 -17 3 -36 0 -44 -6 -11 -9 -15 -9 -19 1 -3 10 -11 9
-36 -4 -17 -9 -31 -13 -31 -8 0 17 -36 11 -53 -8 -11 -12 -17 -35 -16 -63 1
-35 2 -39 8 -19 l7 25 7 -27 c9 -35 25 -36 33 -3 3 14 12 25 20 25 8 0 14 -10
14 -25 0 -33 26 -33 34 1 8 30 30 27 34 -4 5 -30 28 -28 36 3 4 14 13 25 21
25 9 0 15 -10 15 -25 0 -18 5 -25 20 -25 15 0 20 7 20 25 0 15 6 25 15 25 8 0
17 -11 21 -25 8 -33 32 -32 41 3 23 84 30 -290 8 -413 -8 -44 -14 -81 -15 -82
0 -2 -6 -3 -14 -3 -10 0 -17 16 -22 45 -4 28 -11 45 -20 45 -10 0 -14 -13 -14
-45 0 -38 -3 -45 -20 -45 -17 0 -20 7 -20 45 0 32 -4 45 -14 45 -9 0 -16 -17
-20 -45 -8 -47 -36 -65 -36 -22 0 31 -11 67 -20 67 -4 0 -11 -20 -14 -45 -10
-62 -36 -62 -36 0 0 33 -4 45 -15 45 -10 0 -15 -10 -15 -32 0 -36 -15 -67 -26
-55 -4 4 -13 40 -19 79 l-12 73 -2 -86 c-1 -72 2 -89 17 -102 20 -18 52 -23
52 -7 0 5 14 1 31 -8 25 -13 33 -14 36 -4 3 8 9 10 16 4 20 -15 56 -20 60 -8
3 8 8 8 18 -1 17 -17 46 -17 51 -1 3 9 9 8 22 -5 10 -9 26 -17 37 -17 10 0 19
-7 19 -15 0 -13 23 -15 145 -15 142 0 147 -1 171 -25 l25 -25 367 2 c202 1
336 4 297 8 l-70 6 63 2 62 2 0 35 0 35 -350 0 -350 0 0 44 c0 72 -4 76 -76
76 l-64 0 0 -35 0 -35 -100 0 -100 0 0 300 0 300 100 0 100 0 0 -50 0 -50 64
0 c63 0 64 0 70 31 3 17 6 44 6 60 l0 29 350 0 c193 0 350 4 350 8 0 4 -42 13
-94 20 -52 6 -116 20 -143 30 l-48 18 -3 102 -3 102 153 2 c84 0 137 3 118 5
-76 8 -80 10 -80 53 0 29 4 40 15 40 8 0 15 9 15 20 0 16 7 20 35 20 l35 0 0
60 c0 52 -2 60 -17 58 -26 -4 -63 -57 -63 -90 0 -21 -5 -28 -20 -28 -14 0 -20
7 -20 23 1 25 24 72 37 72 5 0 25 14 45 30 l36 30 0 83 c0 45 -4 82 -8 82 -4
0 -7 -35 -7 -77z"/>
<path d="M2750 2866 l0 -114 -52 -12 c-29 -7 -106 -14 -170 -17 l-118 -6 0
-38 0 -39 410 0 410 0 0 60 0 60 -217 0 c-153 1 -213 4 -200 11 14 8 17 25 17
109 l0 100 -40 0 -40 0 0 -114z"/>
<path d="M3480 2386 c0 -10 19 -16 63 -21 254 -28 482 -213 564 -458 23 -71
27 -99 27 -202 1 -132 -16 -225 -43 -232 -9 -3 -31 -37 -50 -77 -48 -100 -177
-227 -281 -278 -80 -40 -181 -68 -242 -68 l-38 0 0 179 0 179 -26 17 c-16 10
-29 13 -37 7 -7 -5 -29 -15 -49 -21 -29 -10 -38 -18 -38 -36 0 -27 -22 -48
-47 -43 -10 2 -26 20 -36 41 -10 20 -24 37 -30 37 -7 0 -25 7 -40 15 -25 13
-31 13 -52 -1 -48 -31 -88 10 -65 66 9 23 9 34 -4 58 -9 17 -16 38 -16 47 0 9
-9 15 -23 15 -29 0 -47 18 -47 45 0 27 18 45 45 45 28 0 61 89 45 121 -15 27
-5 66 18 72 9 2 28 -3 42 -10 22 -13 30 -12 71 6 33 15 49 29 53 46 13 53 86
53 86 -1 0 -15 7 -27 18 -30 9 -3 32 -12 49 -20 26 -11 38 -11 58 -2 l25 11 0
219 0 218 -52 0 c-213 -1 -439 -150 -538 -355 -125 -259 -78 -538 125 -740
118 -119 265 -185 407 -185 l58 0 0 -35 0 -35 48 0 c116 1 274 62 384 151 110
88 187 197 234 334 26 73 28 92 28 225 0 130 -2 153 -26 223 -62 185 -181 323
-351 407 -135 67 -317 105 -317 66z"/>
<path d="M2410 2040 l0 -40 204 0 204 0 21 34 c12 18 21 36 21 40 0 3 -101 6
-225 6 l-225 0 0 -40z"/>
<path d="M3229 1847 c-90 -34 -139 -102 -139 -193 1 -114 91 -204 204 -204 51
0 131 44 160 86 23 34 26 49 26 118 0 69 -3 85 -25 116 -48 70 -151 104 -226
77z m134 -128 c35 -38 36 -86 2 -127 -30 -36 -66 -47 -110 -32 -63 21 -86 101
-44 154 42 54 104 56 152 5z"/>
</g>
</svg>
