<?xml version="1.0" standalone="no"?>
<!DOCTYPE svg PUBLIC "-//W3C//DTD SVG 20010904//EN"
 "http://www.w3.org/TR/2001/REC-SVG-20010904/DTD/svg10.dtd">
<svg version="1.0" xmlns="http://www.w3.org/2000/svg"
 width="500.000000pt" height="500.000000pt" viewBox="0 0 500.000000 500.000000"
 preserveAspectRatio="xMidYMid meet">
<metadata>
Created by potrace 1.16, written by Peter Selinger 2001-2019
</metadata>
<g transform="translate(0.000000,500.000000) scale(0.100000,-0.100000)"
fill="#8731b8" stroke="none">
<path d="M2118 3685 c4 -11 7 -39 7 -62 0 -24 0 -43 0 -43 0 5 108 30 132 30
33 0 33 0 33 48 l0 47 -90 0 c-86 0 -89 -1 -82 -20z"/>
<path d="M2202 3590 c-60 -13 -66 -19 -45 -42 46 -51 126 -62 193 -28 41 21
50 40 27 58 -18 15 -125 22 -175 12z"/>
<path d="M2430 3446 l0 -73 -41 -27 c-42 -28 -69 -75 -69 -121 0 -25 0 -25
-90 -25 -88 0 -91 -1 -100 -26 -6 -14 -10 -41 -10 -60 0 -30 -3 -34 -25 -34
-22 0 -25 -4 -25 -34 0 -18 -10 -48 -22 -66 -36 -52 -85 -71 -214 -83 -63 -6
-114 -15 -114 -19 0 -4 -13 -14 -30 -23 -22 -11 -63 -15 -165 -15 -113 0 -135
-2 -135 -15 0 -9 -9 -15 -22 -15 -12 0 -30 -7 -40 -17 -11 -9 -18 -11 -18 -5
0 16 -43 15 -58 0 -10 -10 -14 -10 -20 -1 -6 9 -15 9 -37 -3 -19 -10 -31 -11
-33 -5 -5 16 -23 13 -44 -6 -11 -9 -18 -11 -18 -5 0 16 -31 15 -53 -2 -12 -9
-17 -26 -16 -57 0 -31 3 -38 8 -24 7 17 8 17 15 -8 8 -34 24 -35 32 -2 7 30
28 28 32 -3 4 -29 30 -28 34 1 2 12 10 22 18 22 8 0 16 -10 18 -22 2 -13 10
-23 17 -23 7 0 15 10 17 23 2 12 10 22 18 22 8 0 16 -10 18 -22 5 -31 30 -29
38 2 3 14 12 25 19 25 7 0 16 -11 19 -25 7 -29 36 -34 36 -6 0 11 5 23 10 26
14 9 13 -387 -1 -458 -16 -78 -49 -75 -49 4 0 19 -5 29 -15 29 -10 0 -15 -10
-15 -29 0 -16 -3 -36 -6 -45 -9 -24 -34 -19 -34 7 0 31 -11 67 -20 67 -4 0
-11 -20 -14 -45 -5 -28 -12 -45 -21 -45 -9 0 -16 17 -21 45 -3 25 -10 45 -14
45 -4 0 -11 -20 -14 -45 -8 -47 -36 -65 -36 -22 0 33 -11 67 -21 67 -5 0 -9
-15 -9 -32 0 -18 -5 -40 -10 -48 -9 -13 -11 -13 -20 0 -5 8 -10 29 -11 45 0
17 -5 41 -9 55 -6 18 -8 2 -9 -51 -1 -62 2 -79 17 -92 20 -18 52 -23 52 -8 0
6 12 3 27 -4 21 -11 29 -12 35 -2 6 9 10 9 20 -1 16 -16 45 -16 51 1 3 9 9 7
24 -6 23 -20 50 -22 55 -5 3 9 9 8 22 -5 10 -9 26 -17 37 -17 10 0 19 -7 19
-15 0 -13 23 -15 145 -15 142 0 147 -1 171 -25 l25 -25 362 2 c199 1 333 4
297 8 l-65 7 63 1 62 2 0 35 0 35 -350 0 -350 0 0 29 c0 16 -3 43 -6 60 -6 31
-7 31 -69 31 l-63 0 -6 -35 -7 -35 -94 0 -95 0 0 300 0 300 94 0 c102 0 106
-2 106 -61 l0 -29 64 0 64 0 7 55 6 55 350 0 c192 0 349 4 349 8 0 4 -40 13
-90 20 -49 7 -113 20 -142 30 l-53 17 -3 101 -3 101 113 9 c62 4 103 9 91 12
-19 3 -23 10 -23 43 0 29 4 39 16 39 9 0 18 9 21 20 4 14 14 20 34 20 29 0 29
1 29 60 0 41 -4 60 -12 60 -19 0 -58 -63 -58 -93 0 -20 -5 -27 -20 -27 -16 0
-20 7 -20 30 0 32 18 55 83 100 l35 25 -1 83 c-2 102 -17 110 -17 8z"/>
<path d="M2798 2948 l-3 -113 -50 -13 c-27 -7 -103 -15 -167 -19 l-118 -6 0
-39 0 -38 410 0 410 0 0 60 0 60 -217 0 c-153 1 -213 4 -200 11 14 8 17 25 17
109 l0 100 -40 0 -39 0 -3 -112z"/>
<path d="M3496 2255 c-7 -29 2 -75 15 -75 5 0 9 7 9 15 0 8 9 24 20 35 18 18
33 20 136 20 127 0 154 -8 154 -45 0 -16 6 -25 15 -25 11 0 15 12 15 50 l0 50
-179 0 -179 0 -6 -25z"/>
<path d="M2460 2125 l0 -45 410 0 410 0 0 45 0 45 -410 0 -410 0 0 -45z"/>
<path d="M2400 1779 c-170 -264 -227 -474 -166 -604 43 -93 119 -146 216 -151
30 -2 47 -1 38 2 -13 4 -18 16 -18 39 0 20 -6 35 -15 39 -8 3 -15 12 -15 20 0
7 7 16 15 20 13 5 15 52 15 346 0 241 3 339 11 335 6 -4 5 2 -3 14 -7 12 -16
21 -19 21 -4 0 -30 -36 -59 -81z"/>
</g>
</svg>
