<?xml version="1.0" standalone="no"?>
<!DOCTYPE svg PUBLIC "-//W3C//DTD SVG 20010904//EN"
 "http://www.w3.org/TR/2001/REC-SVG-20010904/DTD/svg10.dtd">
<svg version="1.0" xmlns="http://www.w3.org/2000/svg"
 width="500.000000pt" height="500.000000pt" viewBox="0 0 500.000000 500.000000"
 preserveAspectRatio="xMidYMid meet">
<metadata>
Created by potrace 1.16, written by Peter Selinger 2001-2019
</metadata>
<g transform="translate(0.000000,500.000000) scale(0.100000,-0.100000)"
fill="#8731b8" stroke="none">
<path d="M1330 2844 c-88 -18 -231 -91 -308 -156 -143 -122 -232 -289 -257
-485 -7 -52 -6 -53 19 -53 22 0 26 5 26 28 1 63 32 173 75 260 100 202 299
343 523 370 69 8 72 7 72 -12 0 -12 4 -27 9 -34 11 -18 21 7 21 53 0 25 -5 34
-22 39 -35 9 -86 6 -158 -10z"/>
</g>
</svg>
