<?xml version="1.0" standalone="no"?>
<!DOCTYPE svg PUBLIC "-//W3C//DTD SVG 20010904//EN"
 "http://www.w3.org/TR/2001/REC-SVG-20010904/DTD/svg10.dtd">
<svg version="1.0" xmlns="http://www.w3.org/2000/svg"
 width="500.000000pt" height="500.000000pt" viewBox="0 0 500.000000 500.000000"
 preserveAspectRatio="xMidYMid meet">
<metadata>
Created by potrace 1.16, written by Peter Selinger 2001-2019
</metadata>
<g transform="translate(0.000000,500.000000) scale(0.100000,-0.100000)"
fill="#8731b8" stroke="none">
<path d="M2113 3723 l47 -4 0 -239 c0 -181 -3 -240 -12 -243 -7 -3 7 -6 33 -6
130 -2 243 -124 243 -261 0 -135 -87 -233 -236 -264 l-28 -6 0 -250 0 -250 53
0 c71 0 93 23 102 105 l7 61 57 20 c31 12 63 24 72 28 10 4 31 -6 60 -29 32
-25 54 -35 80 -35 31 0 45 9 112 79 91 93 94 110 41 182 l-35 48 27 70 c28 72
40 81 109 81 12 0 34 9 49 21 25 20 26 24 26 130 0 61 -5 119 -10 129 -11 21
-67 40 -117 40 -20 0 -33 5 -33 13 0 6 -11 39 -25 72 l-24 59 34 45 c55 69 50
90 -43 183 -93 93 -113 98 -185 43 -43 -33 -48 -35 -69 -22 -13 8 -44 22 -70
32 -48 18 -58 32 -58 91 0 18 -9 42 -19 55 -18 22 -26 24 -128 25 -59 1 -87
-1 -60 -3z"/>
<path d="M3311 2913 l26 -4 6 -136 c11 -212 10 -231 -10 -236 -10 -3 -1 -5 20
-6 165 -5 255 -186 160 -323 -25 -37 -109 -88 -145 -88 -15 0 -18 -9 -18 -52
0 -29 -3 -117 -7 -195 l-6 -143 50 0 c60 0 75 14 83 77 5 43 7 45 61 67 l56
23 34 -28 c54 -45 82 -39 151 29 68 69 75 101 32 152 l-26 31 17 47 c24 65 32
72 75 72 59 0 70 21 70 128 0 102 -10 122 -63 122 -44 0 -52 8 -77 64 l-20 49
25 33 c41 54 34 82 -39 152 -35 34 -69 62 -76 62 -16 0 -65 -26 -78 -43 -11
-13 -20 -11 -70 9 -56 22 -57 24 -69 75 -6 28 -17 56 -25 60 -7 5 -47 8 -88 7
-41 0 -63 -3 -49 -5z"/>
<path d="M2322 2168 c-7 -7 -12 -17 -12 -22 0 -6 5 -3 11 7 6 11 22 17 43 17
l34 0 7 -153 7 -153 48 -17 c113 -40 152 -168 79 -261 -23 -29 -88 -66 -116
-66 -16 0 -18 -15 -21 -165 l-3 -165 39 0 c48 0 72 24 72 71 0 32 3 36 47 52
46 17 48 17 75 -3 46 -34 79 -27 132 30 25 27 46 57 46 68 0 10 -11 33 -24 51
l-24 33 18 41 c16 35 25 43 54 48 58 10 66 22 66 108 0 83 -9 101 -48 101 -38
0 -58 16 -72 59 -12 36 -11 42 9 67 31 39 26 59 -25 114 -52 56 -88 64 -130
31 -24 -19 -26 -19 -66 -1 -47 21 -58 34 -58 72 0 17 -8 31 -19 38 -27 14
-154 13 -169 -2z"/>
</g>
</svg>
