<?xml version="1.0" standalone="no"?>
<!DOCTYPE svg PUBLIC "-//W3C//DTD SVG 20010904//EN"
 "http://www.w3.org/TR/2001/REC-SVG-20010904/DTD/svg10.dtd">
<svg version="1.0" xmlns="http://www.w3.org/2000/svg"
 width="500.000000pt" height="500.000000pt" viewBox="0 0 500.000000 500.000000"
 preserveAspectRatio="xMidYMid meet">
<metadata>
Created by potrace 1.16, written by Peter Selinger 2001-2019
</metadata>
<g transform="translate(0.000000,500.000000) scale(0.100000,-0.100000)"
fill="#8731b8" stroke="none">
<path d="M1150 4290 c-7 -12 -9 -111 -8 -277 l3 -258 698 -3 697 -2 0 60 0 60
-47 0 c-115 0 -182 103 -134 204 28 56 92 92 146 82 l35 -7 1 -67 c0 -37 0
-97 -1 -134 -1 -38 2 -68 7 -68 5 0 19 7 31 16 74 52 67 187 -13 240 -23 15
-25 22 -25 95 l0 79 -690 0 c-675 0 -690 0 -700 -20z m640 -220 l0 -90 -235 0
-235 0 0 90 0 90 235 0 235 0 0 -90z m398 64 c59 -39 81 -140 43 -198 -56 -85
-182 -90 -239 -9 -55 79 -22 185 68 222 31 13 97 5 128 -15z"/>
<path d="M2802 4143 c-74 -36 -104 -138 -60 -202 35 -52 69 -73 120 -73 85 -2
148 60 148 144 0 108 -112 179 -208 131z m88 -42 c0 -9 7 -29 15 -45 17 -32
20 -72 6 -81 -5 -3 -13 -20 -16 -38 -4 -17 -12 -41 -17 -51 -10 -18 -11 -18
-24 5 -7 13 -14 33 -14 44 0 11 -7 29 -15 39 -19 25 -19 55 0 80 8 11 15 25
15 32 0 7 5 25 11 41 10 27 11 27 25 9 8 -11 14 -27 14 -35z"/>
<path d="M3180 4141 c-56 -29 -75 -64 -75 -132 0 -54 3 -61 36 -95 63 -62 145
-63 207 -1 30 30 36 44 40 89 3 44 0 59 -20 87 -45 66 -122 88 -188 52z m90
-40 c0 -9 7 -29 15 -45 17 -31 20 -72 6 -80 -4 -3 -14 -26 -21 -51 -14 -52
-26 -57 -41 -17 -6 15 -17 40 -25 55 -18 36 -17 67 1 91 8 11 15 25 15 32 0 7
5 25 11 41 10 27 11 27 25 9 8 -11 14 -27 14 -35z"/>
<path d="M3560 4142 c-57 -31 -83 -77 -78 -140 4 -45 10 -59 40 -88 61 -62
144 -62 205 -1 86 85 32 231 -90 244 -29 3 -53 -2 -77 -15z m89 -46 c6 -25 15
-48 21 -51 14 -9 12 -49 -4 -82 -8 -15 -20 -43 -27 -60 -14 -41 -23 -36 -39
22 -7 25 -17 48 -21 51 -12 7 -11 61 0 69 5 3 13 20 16 38 10 42 24 69 34 62
5 -2 14 -25 20 -49z"/>
<path d="M1145 3688 c-3 -7 -4 -546 -3 -1198 l3 -1185 698 -3 697 -2 0 159 0
159 -147 6 c-303 14 -510 35 -717 72 -75 14 -95 22 -127 51 -22 20 -43 51 -49
71 -6 23 -10 241 -10 572 l0 536 23 44 c12 25 36 54 54 66 68 45 544 104 845
104 l128 0 0 85 0 85 -518 0 c-348 0 -521 -3 -528 -10 -6 -6 -41 -10 -80 -8
l-69 3 0 80 0 80 69 3 c39 2 74 -2 80 -8 7 -7 180 -10 528 -10 l518 0 0 130 0
130 -695 0 c-547 0 -697 -3 -700 -12z"/>
<path d="M1147 1243 c-12 -11 -8 -512 3 -534 10 -18 29 -19 700 -19 l690 0 0
280 0 280 -693 0 c-382 0 -697 -3 -700 -7z"/>
</g>
</svg>
