<?xml version="1.0" standalone="no"?>
<!DOCTYPE svg PUBLIC "-//W3C//DTD SVG 20010904//EN"
 "http://www.w3.org/TR/2001/REC-SVG-20010904/DTD/svg10.dtd">
<svg version="1.0" xmlns="http://www.w3.org/2000/svg"
 width="500.000000pt" height="500.000000pt" viewBox="0 0 500.000000 500.000000"
 preserveAspectRatio="xMidYMid meet">
<metadata>
Created by potrace 1.16, written by Peter Selinger 2001-2019
</metadata>
<g transform="translate(0.000000,500.000000) scale(0.100000,-0.100000)"
fill="#8731b8" stroke="none">
<path d="M2450 3950 c0 -7 984 -21 999 -13 1 1 0 6 -4 12 -8 14 -995 15 -995
1z"/>
<path d="M1500 3510 c0 -273 3 -420 10 -420 7 0 10 147 10 420 0 273 -3 420
-10 420 -7 0 -10 -147 -10 -420z"/>
<path d="M1690 3670 c0 -255 0 -260 19 -250 11 5 65 10 120 10 82 0 108 -4
138 -20 32 -17 57 -20 159 -20 126 0 150 -8 142 -44 -3 -14 -38 -16 -250 -18
-137 -2 -248 -6 -248 -10 0 -5 46 -8 103 -8 92 -1 100 -2 83 -15 -24 -18 -216
-21 -247 -5 -18 10 -19 6 -19 -89 0 -76 3 -99 13 -96 13 4 166 10 530 21 l217
7 0 398 0 399 -380 0 -380 0 0 -260z"/>
<path d="M2450 3055 l0 -25 -380 0 -380 0 0 -82 0 -83 120 3 c99 3 125 1 146
-13 18 -12 58 -17 147 -21 161 -7 169 -9 165 -39 l-3 -24 -247 -3 c-137 -2
-248 -6 -248 -10 0 -5 46 -8 102 -8 82 0 100 -3 90 -12 -17 -17 -222 -24 -251
-9 l-21 12 0 -971 0 -972 -32 7 c-18 4 -55 19 -83 35 l-50 27 -3 1082 c-1 709
-6 1081 -12 1081 -7 0 -10 -367 -10 -1071 0 -853 -3 -1069 -12 -1063 -7 4 5
-12 27 -35 78 -81 69 -80 528 -87 l407 -7 0 1131 0 1132 505 0 505 0 0 25 0
25 -505 0 -505 0 0 -25z"/>
</g>
</svg>
