<?xml version="1.0" standalone="no"?>
<!DOCTYPE svg PUBLIC "-//W3C//DTD SVG 20010904//EN"
 "http://www.w3.org/TR/2001/REC-SVG-20010904/DTD/svg10.dtd">
<svg version="1.0" xmlns="http://www.w3.org/2000/svg"
 width="500.000000pt" height="500.000000pt" viewBox="0 0 500.000000 500.000000"
 preserveAspectRatio="xMidYMid meet">
<metadata>
Created by potrace 1.16, written by Peter Selinger 2001-2019
</metadata>
<g transform="translate(0.000000,500.000000) scale(0.100000,-0.100000)"
fill="#8731b8" stroke="none">
<path d="M1240 3940 l0 -30 1360 0 1360 0 0 30 0 30 -1360 0 -1360 0 0 -30z"/>
<path d="M1505 3841 c-86 -21 -157 -93 -175 -175 -6 -28 -10 -113 -8 -191 l3
-140 26 -3 c25 -3 26 0 41 76 22 111 61 185 138 263 154 155 378 191 572 93
61 -31 167 -129 194 -179 l19 -35 89 0 88 0 40 45 c25 29 66 58 116 82 72 36
81 38 171 38 87 0 102 -3 164 -32 41 -20 87 -52 117 -83 l49 -50 128 0 c103 0
136 -4 168 -19 69 -32 105 -86 105 -157 l0 -34 160 0 160 0 0 153 c0 83 -5
169 -11 190 -13 47 -69 111 -123 140 l-41 22 -1080 2 c-594 0 -1093 -2 -1110
-6z"/>
<path d="M1010 2850 c0 -7 540 -10 1600 -10 1060 0 1600 3 1600 10 0 7 -540
10 -1600 10 -1060 0 -1600 -3 -1600 -10z"/>
<path d="M1260 945 c0 -227 5 -255 47 -274 34 -16 2552 -16 2586 0 42 19 47
47 47 259 0 110 -1 200 -2 200 -23 2 -2270 30 -2440 30 l-238 0 0 -215z"/>
</g>
</svg>
