<?xml version="1.0" standalone="no"?>
<!DOCTYPE svg PUBLIC "-//W3C//DTD SVG 20010904//EN"
 "http://www.w3.org/TR/2001/REC-SVG-20010904/DTD/svg10.dtd">
<svg version="1.0" xmlns="http://www.w3.org/2000/svg"
 width="500.000000pt" height="500.000000pt" viewBox="0 0 500.000000 500.000000"
 preserveAspectRatio="xMidYMid meet">
<metadata>
Created by potrace 1.16, written by Peter Selinger 2001-2019
</metadata>
<g transform="translate(0.000000,500.000000) scale(0.100000,-0.100000)"
fill="#8731b8" stroke="none">
<path d="M1130 4161 c-5 -11 -10 -31 -10 -45 l0 -26 1316 0 1317 0 -6 37 c-4
20 -12 40 -19 45 -7 4 -592 8 -1300 8 -1263 0 -1287 0 -1298 -19z"/>
<path d="M1120 3710 l0 -310 443 0 c439 0 444 0 463 21 45 50 166 93 311 109
178 20 397 -23 480 -95 l41 -35 446 0 446 0 0 310 0 310 -1315 0 -1315 0 0
-310z m2455 231 l30 -6 0 -95 0 -95 -155 -8 c-85 -4 -261 -6 -390 -5 l-235 3
-3 94 c-1 52 -1 100 2 108 4 10 75 13 363 12 197 -1 372 -4 388 -8z m-2057
-133 c7 -7 12 -41 12 -83 0 -42 -5 -76 -12 -83 -18 -18 -143 -16 -162 4 -20
19 -22 144 -4 162 16 16 150 16 166 0z"/>
<path d="M1120 2300 l0 -1030 1315 0 1315 0 0 1030 0 1030 -1315 0 -1315 0 0
-1030z"/>
<path d="M1120 1070 c0 -117 2 -132 20 -150 20 -20 33 -20 1283 -20 694 0
1272 3 1283 6 35 9 44 47 44 174 l0 120 -1315 0 -1315 0 0 -130z"/>
</g>
</svg>
