<?xml version="1.0" standalone="no"?>
<!DOCTYPE svg PUBLIC "-//W3C//DTD SVG 20010904//EN"
 "http://www.w3.org/TR/2001/REC-SVG-20010904/DTD/svg10.dtd">
<svg version="1.0" xmlns="http://www.w3.org/2000/svg"
 width="500.000000pt" height="500.000000pt" viewBox="0 0 500.000000 500.000000"
 preserveAspectRatio="xMidYMid meet">
<metadata>
Created by potrace 1.16, written by Peter Selinger 2001-2019
</metadata>
<g transform="translate(0.000000,500.000000) scale(0.100000,-0.100000)"
fill="#8731b8" stroke="none">
<path d="M818 3591 l-33 -29 -3 -1079 c-2 -817 1 -1085 10 -1107 7 -18 26 -35
52 -47 39 -17 122 -18 1591 -17 1674 0 1589 -3 1633 53 l22 28 0 1069 c0 1157
2 1104 -52 1142 -20 14 -187 16 -1605 16 l-1583 0 -32 -29z m2283 -194 c73
-48 69 6 69 -938 l0 -846 -23 -34 c-49 -74 24 -69 -1097 -69 -975 0 -1006 1
-1048 20 -34 15 -47 29 -63 64 -19 44 -19 66 -17 888 3 794 4 846 21 871 10
16 32 37 50 47 31 19 59 20 1053 20 l1021 0 34 -23z m829 -647 l0 -670 -290 0
-290 0 0 183 c0 100 -3 401 -7 670 l-6 487 296 0 297 0 0 -670z m-15 -1025 l0
-200 -285 0 -285 0 -3 190 c-1 104 0 195 3 202 3 11 63 13 287 11 l283 -3 0
-200z"/>
<path d="M3360 3310 l0 -100 135 0 135 0 0 100 0 100 -135 0 -135 0 0 -100z"/>
<path d="M3640 3310 l0 -100 135 0 135 0 0 100 0 100 -135 0 -135 0 0 -100z"/>
<path d="M3360 3095 l0 -95 135 0 135 0 0 95 0 95 -135 0 -135 0 0 -95z"/>
<path d="M3640 3095 l0 -95 135 0 135 0 0 95 0 95 -135 0 -135 0 0 -95z"/>
<path d="M3360 2880 l0 -100 135 0 135 0 0 100 0 100 -135 0 -135 0 0 -100z"/>
<path d="M3640 2880 l0 -100 135 0 135 0 0 100 0 100 -135 0 -135 0 0 -100z"/>
<path d="M3360 2430 l0 -340 275 0 275 0 0 340 0 340 -275 0 -275 0 0 -340z
m355 146 c13 -8 29 -32 36 -53 7 -21 25 -50 41 -64 23 -22 28 -36 28 -72 0
-82 -71 -133 -144 -103 -32 13 -40 13 -72 0 -70 -29 -144 24 -144 105 0 26 8
42 38 70 21 20 44 51 51 70 28 65 105 87 166 47z"/>
</g>
</svg>
