<?xml version="1.0" standalone="no"?>
<!DOCTYPE svg PUBLIC "-//W3C//DTD SVG 20010904//EN"
 "http://www.w3.org/TR/2001/REC-SVG-20010904/DTD/svg10.dtd">
<svg version="1.0" xmlns="http://www.w3.org/2000/svg"
 width="500.000000pt" height="500.000000pt" viewBox="0 0 500.000000 500.000000"
 preserveAspectRatio="xMidYMid meet">
<metadata>
Created by potrace 1.16, written by Peter Selinger 2001-2019
</metadata>
<g transform="translate(0.000000,500.000000) scale(0.100000,-0.100000)"
fill="#8731b8" stroke="none">
<path d="M1542 3976 c-162 -41 -325 -171 -395 -316 -42 -86 -67 -175 -67 -237
0 -67 15 -50 28 31 62 401 485 621 851 444 87 -43 216 -169 258 -254 29 -59
56 -148 68 -226 10 -63 28 -46 21 20 -29 243 -182 440 -406 519 -61 21 -96 27
-190 29 -73 2 -134 -1 -168 -10z"/>
<path d="M2688 3453 c-52 -3 -78 -8 -78 -16 0 -7 -3 -22 -6 -34 l-6 -23 819 0
820 0 6 -592 c4 -326 7 -716 7 -865 l0 -273 -819 0 -818 0 -6 -30 c-9 -44 -43
-73 -75 -65 -40 10 -52 24 -52 61 l0 34 -319 0 -319 0 -21 -32 -20 -33 216 -3
c138 -1 220 1 227 8 5 5 56 10 111 10 101 0 101 0 123 -30 18 -24 30 -30 60
-30 41 0 82 23 82 46 0 12 102 14 748 13 411 -1 731 -5 712 -9 -21 -5 19 -7
100 -6 l135 1 -2 135 c-1 74 -4 493 -8 931 l-7 796 -271 6 c-265 7 -1187 6
-1339 0z"/>
</g>
</svg>
