<svg style="fill:#8731b8;" id="Capa_1" enable-background="new 0 0 507.052 507.052" height="512" viewBox="0 0 507.052 507.052" width="512" xmlns="http://www.w3.org/2000/svg"><path d="m506.877 417.044-16.983-87.106c-.793-4.065-4.722-6.721-8.797-5.926-4.065.793-6.719 4.731-5.926 8.797l14.354 73.621-11.599-7.812c-12.868-8.666-28.692-10.514-42.825-5.552l-46.221-295.471c7.877-4.993 17.866-4.886 25.642.351l17.102 11.519 37.315 191.382c.793 4.065 4.732 6.723 8.797 5.926 4.065-.793 6.719-4.731 5.926-8.797l-37.767-193.695c-.475-2.436-1.87-4.543-3.937-5.939l-19.058-12.836c-13.051-8.789-29.917-8.789-42.966 0l-2.387 1.607c-7.959 5.36-18.246 5.361-26.207.001l-2.387-1.608c-13.051-8.789-29.916-8.789-42.967.001l-2.385 1.606c-7.961 5.36-18.247 5.362-26.208 0l-2.386-1.607c-13.05-8.788-29.916-8.79-42.967 0l-2.386 1.607c-7.96 5.362-18.247 5.361-26.206.001l-2.387-1.608c-13.05-8.789-29.916-8.789-42.966 0l-2.386 1.607c-7.959 5.362-18.246 5.362-26.207 0l-2.386-1.607c-13.051-8.789-29.917-8.789-42.966 0l-19.064 12.84c-2.059 1.39-3.455 3.498-3.931 5.936l-60.981 312.761c-.724 3.707.843 7.452 3.992 9.54s7.208 2.075 10.345-.036l22.993-15.488c11.274-7.595 25.846-7.595 37.122-.001l3.864 2.604c16.366 11.023 37.516 11.023 53.882 0l3.862-2.603c11.276-7.596 25.848-7.593 37.122-.001l3.864 2.604c16.366 11.023 37.516 11.023 53.882 0l3.862-2.603c11.276-7.596 25.848-7.593 37.122-.001l3.863 2.604c16.367 11.023 37.516 11.023 53.883 0l3.862-2.603c11.276-7.595 25.848-7.594 37.122-.001l3.863 2.604c16.367 11.023 37.516 11.023 53.883 0l3.862-2.603c11.276-7.595 25.848-7.595 37.122 0l22.995 15.489c1.576 1.062 3.387 1.592 5.198 1.592 1.789 0 3.579-.519 5.145-1.556 3.15-2.088 4.717-5.833 3.993-9.54zm-420.007-15.824-.917-.617 6.532-41.76c.64-4.093-2.158-7.929-6.25-8.569-4.092-.638-7.928 2.159-8.569 6.251l-5.716 36.541c-14.132-4.962-29.957-3.114-42.826 5.552l-11.598 7.812 57.902-296.966 17.103-11.519c7.775-5.238 17.764-5.345 25.642-.35l-35.506 226.967c-.641 4.093 2.158 7.929 6.25 8.569.393.062.783.091 1.168.091 3.63 0 6.822-2.643 7.4-6.342l34.759-222.19c7.291 2.055 15.02 1.9 22.244-.464l-28.558 295.688-1.938 1.306c-11.276 7.594-25.847 7.594-37.122 0zm54.877-9.049 28.621-296.331c7.154-3.074 15.413-2.424 22.089 1.966l-22.574 294.991c-9.127-3.027-18.916-3.235-28.136-.626zm43.853 9.049-1.253-.844 22.612-295.483c7.432 1.929 15.28 1.585 22.559-1.039l-5.164 296.266-1.633 1.1c-11.274 7.594-25.846 7.594-37.121 0zm53.891-8.765 5.172-296.766c5.688-2.336 12.037-2.337 17.726 0l5.173 296.766c-9.153-2.803-18.919-2.803-28.071 0zm97.678.341-16.379-214.028c-.316-4.13-3.919-7.217-8.051-6.906-4.13.316-7.222 3.921-6.906 8.051l16.872 220.464-1.253.844c-11.274 7.596-25.847 7.594-37.121 0l-1.633-1.1-5.164-296.266c7.278 2.624 15.126 2.969 22.559 1.04l3.295 43.057c.302 3.936 3.588 6.928 7.471 6.928.191 0 .386-.007.58-.021 4.13-.316 7.222-3.921 6.906-8.051l-3.75-49.001c6.676-4.389 14.935-5.04 22.089-1.966l28.621 296.332c-9.22-2.611-19.008-2.403-28.136.623zm45.892 8.424-1.94-1.307-28.559-295.686c7.224 2.364 14.953 2.519 22.245.464l46.291 295.912-.915.616c-11.276 7.596-25.848 7.594-37.122.001z"/></svg>